<svg width="881" height="860" viewBox="0 0 881 860" fill="none" xmlns="http://www.w3.org/2000/svg">
<path d="M36.8308 153.485L6.41272 300.267C19.9457 314.008 34.2908 326.979 57.4426 331.871L168.83 351.442L195.001 178.907L36.8308 153.485Z" fill="#FAFAFA"/>
<path d="M30.4802 144.429L0.0621338 291.21L51.0921 322.815L162.479 342.386L195.375 176.762L30.4802 144.429Z" fill="#F9DCA6"/>
<path d="M20.82 283.382L0 291.21C0 291.21 7.49522 303.431 18.4257 309.948C28.39 316.224 39.4533 320.554 51.0299 322.711C51.0299 322.711 26.7746 310.718 20.82 283.382Z" fill="#DEBE6B"/>
<path d="M13.5331 175.929L89.672 152.319L84.8209 136.288L7.43286 158.794L13.5331 175.929Z" fill="#ABABAB"/>
<path d="M208.554 216.362L159.19 153.756L145.99 164.041L194.73 228.208L208.554 216.362Z" fill="#ABABAB"/>
<path d="M166.727 225.523C166.727 225.814 138.557 220.567 103.934 213.801C69.3099 207.034 41.2862 201.309 41.3486 200.997C41.4111 200.684 69.5181 205.952 104.142 212.718C138.766 219.485 166.789 225.231 166.727 225.523Z" fill="#E0E0E0"/>
<path d="M161.751 248.029C161.751 248.321 133.581 243.074 98.9577 236.287C64.3339 229.499 36.2269 223.899 36.3726 223.503C36.5184 223.108 64.5422 228.458 99.1659 235.225C133.79 241.991 161.813 247.738 161.751 248.029Z" fill="#E0E0E0"/>
<path d="M158.524 268.204C158.524 268.495 130.354 263.249 95.7513 256.482C61.1484 249.716 33.1038 243.99 33.1454 243.678C33.1871 243.365 61.315 248.633 95.9595 255.42C130.604 262.208 158.586 267.912 158.524 268.204Z" fill="#E0E0E0"/>
<path d="M154.63 287.483C154.63 287.775 126.461 282.528 91.8371 275.741C57.2134 268.953 29.1896 263.249 29.2521 262.957C29.3145 262.666 57.4216 267.912 92.0453 274.679C126.669 281.445 154.672 287.192 154.63 287.483Z" fill="#E0E0E0"/>
<path d="M749.584 85.9868L710.213 181.946C697.159 184.59 683.897 186.485 668.719 180.343L597.244 148.468L649.023 39.3499L749.584 85.9868Z" fill="#FAFAFA"/>
<path d="M756.725 83.2385L717.376 179.219L675.86 177.595L604.385 145.719L649.627 37.9758L756.725 83.2385Z" fill="#89F7DC"/>
<path d="M708.485 166.685L717.375 179.177C711.736 181.616 705.656 182.87 699.512 182.862C691.364 182.596 683.34 180.795 675.86 177.553C675.86 177.553 694.494 180.177 708.485 166.685Z" fill="#53E2C0"/>
<path d="M754.248 107.869L719.707 64.8752L728.702 57.5466L764.387 100.394L754.248 107.869Z" fill="#ABABAB"/>
<path d="M626.746 55.6103L679.275 38.7878L682.877 49.8016L630.077 67.7484L626.746 55.6103Z" fill="#ABABAB"/>
<path d="M647.191 77.0341C647.295 76.7635 665.616 84.2587 688.102 93.6902C710.588 103.122 728.722 111.137 728.597 111.408C728.472 111.679 710.171 104.204 687.685 94.752C665.2 85.2997 647.066 77.3048 647.191 77.0341Z" fill="#E0E0E0"/>
<path d="M641.34 91.8789C641.445 91.5874 659.766 99.0826 682.252 108.535C704.738 117.987 722.851 125.982 722.747 126.253C722.643 126.523 704.3 119.049 681.835 109.597C659.371 100.144 641.216 92.1495 641.34 91.8789Z" fill="#E0E0E0"/>
<path d="M635.365 104.704C635.49 104.413 653.812 111.908 676.277 121.36C698.741 130.812 716.896 138.807 716.772 139.078C716.647 139.349 698.346 131.874 675.86 122.422C653.375 112.97 635.261 104.975 635.365 104.704Z" fill="#E0E0E0"/>
<path d="M630.16 117.258C630.264 116.988 648.586 124.483 671.071 133.915C693.557 143.346 711.671 151.362 711.566 151.632C711.462 151.903 693.12 144.429 670.634 134.976C648.149 125.524 630.035 117.529 630.16 117.258Z" fill="#E0E0E0"/>
<path d="M706.778 494.955C674.882 468.971 670.489 424.791 674.736 385.691C675.444 379.154 675.236 372.221 678.775 366.703C682.315 361.186 689.872 357.813 695.431 360.999C700.116 363.643 701.823 369.452 704.197 374.324C707.362 380.832 712.307 386.311 718.458 390.126C722.456 392.603 727.515 394.29 731.804 392.333C737.675 389.647 738.924 381.923 739.362 375.385C740.194 363.254 741.02 351.116 741.839 338.971C741.933 332.439 743.079 325.964 745.233 319.796C747.71 313.758 752.603 308.366 758.932 307.075C765.262 305.784 772.632 309.948 773.506 316.423C773.544 319.129 773.405 321.834 773.09 324.522C773.09 327.249 774.089 330.331 776.609 331.268C779.128 332.205 781.897 330.581 783.979 328.811C791.183 322.752 796.367 314.612 801.26 306.513C806.152 298.414 810.92 290.106 817.541 283.382C824.162 276.657 833.01 271.618 842.379 271.764C851.748 271.91 861.242 278.426 862.908 287.754C864.573 297.081 858.556 306.013 852.185 313.008C842.726 323.388 831.814 332.343 819.789 339.596C817.482 340.664 815.573 342.435 814.335 344.655C812.607 348.819 816.417 353.503 820.581 355.252C825.328 357.23 830.616 357.126 835.654 358.084C840.693 359.042 846.064 361.707 847.584 366.641C849.666 373.491 843.67 380.07 837.861 384.213C826.221 392.558 813.225 398.827 799.448 402.743C794.535 404.159 789.371 405.304 785.27 408.385C781.168 411.466 778.399 417.15 780.377 421.897C782.355 426.644 788.268 428.581 793.348 428.018C798.428 427.456 803.113 425.062 808.026 423.625C817.229 420.898 828.721 422.376 833.885 430.538C837.278 435.888 837.07 443.03 834.717 448.901C832.091 454.707 828.333 459.931 823.662 464.266C808.222 480.233 788.825 491.821 767.448 497.849C746.17 503.512 726.807 504.095 706.737 494.955" fill="#059B26"/>
<path d="M704.113 523.978C707.26 505.936 712.141 488.241 718.687 471.137C726.772 450.265 736.052 429.876 746.482 410.072L754.602 394.436C757.267 389.314 759.911 384.213 762.826 379.404C768.41 370.178 774.498 361.267 781.064 352.712C787.31 344.509 793.556 336.952 799.323 329.81C805.09 322.669 810.774 316.361 816.125 310.697C824.51 301.738 833.596 293.46 843.295 285.942C846.731 283.277 849.541 281.3 851.311 279.988L853.393 278.489C853.627 278.311 853.878 278.158 854.143 278.031C853.927 278.234 853.698 278.422 853.455 278.593L851.373 280.175C849.562 281.549 846.876 283.59 843.503 286.317C833.938 293.953 824.966 302.306 816.666 311.301C811.357 316.964 805.819 323.418 800.01 330.456C794.202 337.493 788.039 345.03 781.855 353.358C775.341 361.9 769.294 370.79 763.742 379.987C760.869 384.775 758.245 389.814 755.56 394.956C752.874 400.099 750.209 405.366 747.461 410.571C737.052 430.342 727.759 450.681 719.624 471.491C713.052 488.518 708.096 506.126 704.821 524.082" fill="#E0E0E0"/>
<path d="M763.2 379.383C762.955 378.465 762.815 377.522 762.784 376.572C762.576 374.74 762.347 372.096 762.138 368.827C761.701 362.269 761.389 353.212 761.097 343.218C760.806 333.225 760.39 324.189 759.848 317.651C759.598 314.403 759.349 311.759 759.161 309.927C759.011 308.984 758.962 308.028 759.015 307.075C759.317 307.98 759.519 308.916 759.619 309.865C759.952 311.676 760.327 314.32 760.702 317.568C761.451 324.106 762.013 333.162 762.305 343.177C762.596 353.191 762.805 361.915 762.992 368.785C762.992 371.846 763.179 374.448 763.242 376.53C763.34 377.48 763.326 378.437 763.2 379.383V379.383Z" fill="#E0E0E0"/>
<path d="M848.042 369.951C846.925 370.116 845.796 370.172 844.669 370.118C842.587 370.118 839.38 370.118 835.529 370.326C827.805 370.597 817.145 371.325 805.423 372.637C793.701 373.949 783.125 375.656 775.525 377.072C771.715 377.759 768.655 378.404 766.531 378.841C765.442 379.134 764.326 379.316 763.2 379.383C764.241 378.942 765.322 378.6 766.427 378.363C768.509 377.8 771.57 377.03 775.359 376.281C782.937 374.636 793.514 372.824 805.277 371.471C815.315 370.311 825.404 369.657 835.508 369.514C839.38 369.514 842.524 369.514 844.69 369.681C845.813 369.668 846.935 369.758 848.042 369.951V369.951Z" fill="#E0E0E0"/>
<path d="M719.853 469.679C719.656 469.343 719.496 468.987 719.374 468.617L718.166 465.474C717.125 462.746 715.73 458.77 714.002 453.814C710.671 443.946 706.507 430.142 702.114 414.86C697.721 399.578 693.786 385.712 690.58 375.802C689.06 370.971 687.79 366.995 686.853 364.038C686.457 362.748 686.124 361.686 685.874 360.832C685.725 360.467 685.634 360.08 685.604 359.687C685.809 360.021 685.977 360.378 686.103 360.749L687.29 363.872C688.331 366.599 689.726 370.576 691.454 375.531C694.785 385.421 698.949 399.203 703.342 414.506C707.736 429.809 711.67 443.654 714.877 453.565C716.397 458.395 717.667 462.371 718.604 465.307L719.603 468.534C719.744 468.901 719.829 469.287 719.853 469.679Z" fill="#E0E0E0"/>
<path d="M833.634 442.072C833.269 442.242 832.885 442.368 832.489 442.447L829.179 443.3L816.978 446.278C806.693 448.797 792.515 452.419 776.858 456.459C761.201 460.498 746.96 464.016 736.613 466.306C731.429 467.472 727.244 468.388 724.329 468.909L720.977 469.534C720.582 469.63 720.176 469.679 719.77 469.679C720.135 469.509 720.519 469.383 720.915 469.304L724.225 468.451L736.426 465.474C746.711 462.975 760.889 459.332 776.567 455.293C792.244 451.254 806.568 447.735 816.978 445.424C822.163 444.279 826.347 443.342 829.262 442.842L832.635 442.218C832.962 442.135 833.297 442.086 833.634 442.072V442.072Z" fill="#E0E0E0"/>
<path d="M881 858.598C881 858.91 684.001 859.139 441.072 859.139C198.144 859.139 1.10339 858.91 1.10339 858.598C1.10339 858.285 198.04 858.056 441.072 858.056C684.105 858.056 881 858.306 881 858.598Z" fill="#263238"/>
<path d="M266.85 65.2292L317.089 218.381C337.035 223.94 357.355 228.354 381.631 220.463L495.975 179.094L427.997 4.20567L266.85 65.2292Z" fill="#E0E0E0"/>
<path d="M256.087 60.1908L306.325 213.322L370.805 215.487L485.149 174.097L427.144 2.0612L256.087 60.1908Z" fill="#FF725E"/>
<path d="M321.462 194.917L306.305 213.322C306.305 213.322 319.838 220.713 333.559 221.026C346.207 221.574 358.846 219.723 370.806 215.571C370.806 215.571 341.658 217.215 321.462 194.917Z" fill="#FF725E"/>
<path opacity="0.3" d="M321.462 194.917C316.861 204.224 312.197 215.154 306.305 213.322C306.305 213.322 319.838 220.713 333.559 221.026C346.207 221.574 358.846 219.723 370.806 215.571C370.806 215.571 341.658 217.215 321.462 194.917Z" fill="black"/>
<path d="M257.169 98.6245L315.507 35.8729L302.411 23.5266L242.304 85.9243L257.169 98.6245Z" fill="#ABABAB"/>
<path d="M460.623 31.9379L381.111 0L374.282 16.656L454.085 50.3845L460.623 31.9379Z" fill="#ABABAB"/>
<path d="M426.54 62.8765C426.54 63.1472 397.6 73.2865 361.707 85.5079C325.813 97.7292 296.602 107.411 296.477 107.119C296.353 106.828 325.397 96.7091 361.311 84.4877C397.226 72.2663 426.436 62.585 426.54 62.8765Z" fill="#263238"/>
<path d="M433.89 86.4864C433.89 86.7779 404.95 96.8965 369.056 109.139C333.162 121.381 303.952 131.021 303.869 130.75C303.785 130.479 332.788 120.34 368.702 108.098C404.617 95.8555 433.89 86.2366 433.89 86.4864Z" fill="#263238"/>
<path d="M441.739 107.057C441.739 107.327 412.82 117.467 376.906 129.688C340.991 141.909 311.822 151.591 311.718 151.299C311.614 151.008 340.658 140.889 376.572 128.668C412.487 116.446 441.656 106.765 441.739 107.057Z" fill="#263238"/>
<path d="M448.464 127.106C448.464 127.398 419.524 137.516 383.63 149.759C347.737 162.001 318.547 171.64 318.443 171.37C318.339 171.099 347.362 160.96 383.277 148.718C419.191 136.475 448.318 126.836 448.464 127.106Z" fill="#263238"/>
<path d="M525.497 565.743L515.421 659.433C515.421 659.433 495.787 629.765 482.504 642.985C469.845 655.602 447.485 747.606 447.485 747.606C447.485 747.606 447.193 777.608 463.141 785.54C514.296 811.024 571.301 763.138 571.301 763.138L563.161 494.976C541.953 512.827 528.459 538.18 525.497 565.743Z" fill="#FDCA15"/>
<path d="M698.075 500.618L609.569 493.56C609.027 483.15 609.756 443.238 609.756 443.238C609.756 443.238 572.925 437.512 572.488 400.702C572.051 363.893 578.401 279.322 578.401 279.322C599.333 270.322 622.288 267.077 644.894 269.921C667.5 272.765 688.936 281.595 706.986 295.499L712.44 299.663L698.075 500.618Z" fill="#B78876"/>
<path d="M609.694 442.717C626.697 443.038 643.41 438.291 657.705 429.08C657.705 429.08 646.358 455.563 609.611 452.253L609.694 442.717Z" fill="#AA6550"/>
<path d="M707.923 337.826C708.547 337.555 733.219 330.352 732.407 355.523C731.595 380.694 706.507 374.698 706.486 373.97C706.465 373.241 707.923 337.826 707.923 337.826Z" fill="#B78876"/>
<path d="M714.46 364.684C714.585 364.684 714.897 364.996 715.626 365.371C716.652 365.852 717.825 365.912 718.895 365.537C721.601 364.642 723.975 360.499 724.245 355.96C724.356 353.827 724.001 351.696 723.204 349.714C722.997 348.919 722.599 348.186 722.043 347.58C721.488 346.974 720.793 346.513 720.019 346.237C719.519 346.084 718.981 346.112 718.501 346.318C718.021 346.524 717.629 346.894 717.395 347.362C717.042 348.049 717.166 348.548 717.042 348.59C716.917 348.632 716.521 348.153 716.75 347.112C716.922 346.5 717.287 345.959 717.791 345.571C718.502 345.08 719.373 344.879 720.227 345.009C721.267 345.261 722.226 345.777 723.009 346.506C723.793 347.235 724.377 348.153 724.703 349.173C725.69 351.389 726.132 353.809 725.994 356.231C725.661 361.29 722.913 365.954 719.248 366.891C718.566 367.07 717.851 367.092 717.159 366.955C716.466 366.818 715.814 366.525 715.251 366.1C714.502 365.288 714.377 364.725 714.46 364.684Z" fill="#AA6550"/>
<path d="M586.521 336.327C586.509 337.699 587.034 339.022 587.982 340.014C588.931 341.005 590.229 341.587 591.601 341.636C592.27 341.69 592.943 341.609 593.581 341.398C594.218 341.187 594.806 340.85 595.311 340.407C595.816 339.964 596.227 339.425 596.519 338.821C596.812 338.216 596.98 337.56 597.014 336.889C597.026 335.52 596.505 334.2 595.56 333.209C594.616 332.218 593.323 331.634 591.955 331.58C591.285 331.529 590.612 331.612 589.975 331.824C589.338 332.036 588.749 332.373 588.243 332.814C587.737 333.256 587.324 333.794 587.029 334.398C586.733 335.001 586.56 335.656 586.521 336.327V336.327Z" fill="#263238"/>
<path d="M585.376 331.122C586.021 331.809 590.019 328.852 595.661 328.873C601.303 328.894 605.467 331.726 606.071 330.955C606.363 330.643 605.696 329.394 603.989 328.082C601.543 326.392 598.634 325.498 595.661 325.521C592.715 325.51 589.843 326.436 587.458 328.165C585.647 329.581 585.064 330.81 585.376 331.122Z" fill="#263238"/>
<path d="M641.944 338.409C641.932 339.778 642.454 341.097 643.398 342.088C644.342 343.079 645.635 343.664 647.003 343.718C647.673 343.769 648.346 343.686 648.983 343.474C649.621 343.262 650.209 342.925 650.715 342.484C651.221 342.042 651.634 341.503 651.929 340.9C652.225 340.297 652.398 339.641 652.437 338.971C652.444 337.6 651.918 336.28 650.97 335.29C650.022 334.3 648.727 333.716 647.357 333.662C646.689 333.611 646.017 333.694 645.381 333.906C644.744 334.118 644.157 334.455 643.653 334.898C643.149 335.34 642.738 335.878 642.444 336.481C642.151 337.084 641.981 337.739 641.944 338.409V338.409Z" fill="#263238"/>
<path d="M640.986 332.163C641.653 332.85 645.629 329.893 651.292 329.914C656.955 329.935 661.099 332.767 661.702 331.996C662.015 331.705 661.348 330.456 659.62 329.144C657.173 327.454 654.267 326.553 651.292 326.562C648.348 326.559 645.477 327.484 643.089 329.206C641.278 330.643 640.674 331.871 640.986 332.163Z" fill="#263238"/>
<path d="M620.458 374.136C620.458 373.824 616.96 373.22 611.276 372.491C609.819 372.346 608.466 372.054 608.216 371.055C608.101 369.568 608.435 368.081 609.174 366.787C610.562 363.289 611.984 359.618 613.442 355.773C619.396 340.116 623.685 327.229 623.04 326.999C622.394 326.77 617.085 339.283 611.152 354.94C609.736 358.792 608.362 362.477 606.988 366.016C606.065 367.753 605.799 369.763 606.238 371.679C606.445 372.186 606.768 372.638 607.18 373C607.592 373.361 608.082 373.622 608.611 373.761C609.411 373.988 610.237 374.107 611.068 374.115C616.877 374.448 620.437 374.469 620.458 374.136Z" fill="#263238"/>
<path d="M639.529 310.01C640.091 311.551 645.775 310.822 652.375 311.613C658.975 312.405 664.388 314.216 665.262 312.842C665.658 312.176 664.721 310.76 662.556 309.24C659.659 307.436 656.392 306.311 652.999 305.951C649.606 305.59 646.175 306.003 642.964 307.158C640.528 308.074 639.3 309.261 639.529 310.01Z" fill="#263238"/>
<path d="M587.458 314.757C588.458 316.027 592.351 314.757 597.036 314.632C601.72 314.507 605.697 315.507 606.613 314.154C607.008 313.508 606.384 312.217 604.656 311.01C602.33 309.543 599.62 308.804 596.872 308.885C594.124 308.967 591.463 309.866 589.228 311.468C587.562 312.8 587.021 314.112 587.458 314.757Z" fill="#263238"/>
<path d="M560.475 256.086C560.215 253.801 560.538 251.486 561.416 249.36C562.293 247.233 563.696 245.364 565.493 243.928C567.348 242.578 569.623 241.932 571.911 242.103C574.199 242.275 576.351 243.253 577.985 244.864C577.639 243.327 577.619 241.734 577.928 240.189C578.237 238.644 578.868 237.181 579.779 235.895C580.69 234.609 581.861 233.529 583.216 232.725C584.571 231.921 586.08 231.411 587.645 231.227C593.662 230.853 598.784 235.391 604.572 236.974C610.36 238.556 616.315 237.182 621.769 234.996C627.224 232.81 632.304 229.77 637.822 227.75C649.479 223.493 662.346 224.009 673.625 229.187C684.903 234.364 693.683 243.784 698.054 255.399C706.111 252.88 715.251 256.982 720.227 263.727C725.203 270.473 726.473 279.509 725.474 287.879C724.699 293.526 723.303 299.07 721.31 304.41C721.31 304.889 721.31 305.347 721.31 305.826C720.914 326.063 718.624 349.839 709.984 349.985C694.931 350.214 698.533 321.836 698.533 321.836C680.045 314.716 686.936 287.025 682.314 282.819C677.692 278.614 668.032 268.87 629.348 288.628C614.316 296.311 594.349 296.082 583.44 293.604L582.482 293.396H582.253C582.147 293.36 582.043 293.318 581.941 293.271C578.434 292.408 575.083 291.003 572.01 289.107C568.39 287.02 565.531 283.833 563.848 280.009C563.037 278.095 562.803 275.987 563.172 273.941C563.542 271.896 564.501 270.004 565.93 268.495C562.939 264.98 561.043 260.667 560.475 256.086Z" fill="#263238"/>
<path d="M770.487 731.679L773.256 783.958L779.502 858.91H542.924L553.209 748.022L533.055 572.822C534.804 510.903 558.58 485.169 607.216 479.256L603.385 479.735C610.089 478.944 603.385 479.735 607.216 479.256C637.927 488.958 670.882 488.958 701.593 479.256V479.256C716.167 479.881 728.264 484.357 740.672 486.752C779.752 494.226 811.919 524.415 819.789 550.711C826.222 572.343 872.755 759.973 872.755 759.973H780.126L770.487 731.679Z" fill="#FDCA15"/>
<path d="M615.648 391.542C616.436 393.83 617.544 395.996 618.938 397.975C619.642 398.962 620.549 399.788 621.597 400.398C622.645 401.009 623.811 401.389 625.017 401.514C626.306 401.51 627.573 401.183 628.703 400.565C629.834 399.947 630.793 399.057 631.492 397.975C632.866 395.774 633.5 393.192 633.304 390.605C633.304 388.273 632.138 385.504 629.827 385.233C628.854 385.196 627.888 385.403 627.016 385.837L614.878 390.771" fill="#AA6550"/>
<path d="M620.5 401.535C622.695 401.683 624.899 401.415 626.995 400.744C629.117 399.908 630.858 398.323 631.888 396.289C632.469 395.051 632.782 393.705 632.807 392.338C632.832 390.971 632.569 389.614 632.034 388.356C631.762 387.706 631.413 387.09 630.993 386.524C630.493 386.024 630.597 386.045 630.077 386.128C629.41 386.347 628.756 386.604 628.12 386.899L626.038 387.711C623.435 388.752 621.082 389.668 619.105 390.417C615.128 391.896 612.609 392.687 612.484 392.499C612.359 392.312 614.67 390.938 618.501 389.085C620.416 388.169 622.665 387.003 625.267 385.941L627.224 385.067C627.95 384.722 628.694 384.417 629.452 384.151C630.033 383.955 630.662 383.955 631.243 384.151C631.778 384.372 632.24 384.74 632.575 385.212C633.135 385.91 633.597 386.68 633.949 387.503C634.61 389.05 634.92 390.725 634.855 392.406C634.79 394.088 634.353 395.734 633.575 397.226C632.918 398.429 632.027 399.49 630.954 400.344C629.882 401.199 628.649 401.83 627.329 402.202C625.626 402.759 623.802 402.831 622.061 402.41C621.02 402.077 620.458 401.66 620.5 401.535Z" fill="#263238"/>
<path d="M532.66 721.227L476.946 550.17L471.907 521.459C471.907 521.459 456.75 457.416 456.063 451.087C455.293 443.758 451.566 442.384 448.901 442.759C444.737 443.508 442.301 449.005 442.78 455.251C442.946 457.333 446.944 491.686 446.944 491.686C444.6 488.665 442.047 485.813 439.303 483.15C433.536 477.279 421.231 474.822 409.051 476.591C396.872 478.361 393.603 479.86 394.061 484.628C394.187 485.524 394.512 486.38 395.013 487.133C395.514 487.886 396.177 488.517 396.955 488.979C399.399 490.624 402.366 491.307 405.283 490.895C424.833 488.417 431.225 498.328 431.225 498.328L431.891 502.075C431.891 502.075 419.066 494.871 409.988 499.473C408.643 500.153 407.441 501.086 406.449 502.221C403.78 502.521 401.237 503.514 399.07 505.101C396.903 506.687 395.189 508.813 394.097 511.266C393.005 513.719 392.573 516.415 392.844 519.087C393.116 521.759 394.08 524.313 395.643 526.497C397.142 528.579 399.807 530.453 402.202 529.683C403.473 529.139 404.589 528.288 405.45 527.205C405.938 526.664 406.474 526.17 407.053 525.727L410.363 535.991C410.363 535.991 419.066 558.664 421.731 568.949L448.797 741.193C449.692 746.866 451.707 752.304 454.726 757.19C457.744 762.075 461.705 766.311 466.377 769.65C471.05 772.989 476.34 775.365 481.94 776.638C487.54 777.911 493.337 778.057 498.994 777.066V777.066C505.079 775.995 510.864 773.633 515.958 770.138C521.053 766.643 525.34 762.097 528.53 756.806C531.72 751.514 533.739 745.601 534.452 739.464C535.164 733.327 534.553 727.108 532.66 721.227V721.227Z" fill="#B78876"/>
<path d="M471.053 548.421C467.576 549.795 463.6 547.546 461.309 544.59C459.019 541.633 457.832 537.948 455.771 534.825C449.525 525.456 436.742 522.062 431.037 512.423C430.225 511.069 429.663 509.175 430.808 508.113C431.953 507.051 433.577 507.634 434.972 508.113L469.2 522.5" fill="#B78876"/>
<path d="M469.137 522.583C468.043 521.791 466.854 521.141 465.598 520.647C463.266 519.522 459.851 517.982 455.625 516.087L440.76 509.591L436.429 507.738C434.798 506.717 432.831 506.381 430.953 506.801C430.381 507.057 429.899 507.481 429.572 508.016C429.245 508.551 429.088 509.173 429.121 509.799C429.176 510.824 429.468 511.822 429.975 512.714C430.908 514.288 432.011 515.754 433.264 517.086C438.365 522.416 444.528 525.414 449.15 529.225C451.386 530.924 453.352 532.953 454.98 535.242C456.458 537.324 457.478 539.718 458.644 541.758C459.422 543.499 460.57 545.048 462.009 546.3C463.447 547.551 465.141 548.474 466.972 549.004C469.72 549.524 471.136 548.462 471.011 548.421C469.732 548.589 468.433 548.519 467.18 548.212C465.542 547.587 464.051 546.627 462.804 545.394C461.556 544.161 460.579 542.682 459.935 541.05C458.873 538.968 457.853 536.657 456.395 534.263C454.728 531.782 452.684 529.577 450.337 527.726C445.59 523.707 439.469 520.584 434.784 515.629C433.641 514.434 432.635 513.114 431.786 511.694C431.016 510.362 430.953 508.925 431.786 508.696C432.619 508.467 434.201 508.967 435.659 509.591L439.989 511.382L455.042 517.482C459.352 519.168 462.85 520.522 465.265 521.417C466.495 521.984 467.798 522.376 469.137 522.583V522.583Z" fill="#AA6550"/>
<path d="M432.349 502.367C431.881 500.039 430.868 497.856 429.392 495.996C427.701 494.106 425.444 492.813 422.959 492.311C419.858 491.71 416.683 491.598 413.548 491.978C410.308 492.37 407.036 492.433 403.783 492.165C401.049 491.905 398.429 490.936 396.184 489.354C395.429 488.783 394.813 488.048 394.384 487.204C393.955 486.36 393.723 485.429 393.707 484.482C393.661 483.805 393.821 483.131 394.165 482.546C394.29 482.546 394.165 483.254 394.165 484.461C394.258 485.299 394.534 486.106 394.973 486.825C395.412 487.545 396.003 488.159 396.705 488.625C398.853 489.986 401.308 490.788 403.846 490.957C407.02 491.147 410.205 491.042 413.361 490.645C416.641 490.259 419.963 490.428 423.188 491.145C425.894 491.763 428.314 493.273 430.058 495.434C431.196 496.883 431.954 498.593 432.265 500.41C432.458 501.044 432.487 501.718 432.349 502.367V502.367Z" fill="#AA6550"/>
<path d="M442.634 452.919C443.104 455.161 443.383 457.438 443.467 459.727C443.904 464.412 444.445 469.992 445.049 476.154C445.653 482.317 446.361 487.876 446.881 492.56C447.282 494.815 447.484 497.1 447.485 499.389C446.713 497.228 446.189 494.986 445.923 492.706C445.195 488.542 444.362 482.733 443.696 476.3C443.029 469.867 442.634 464.016 442.488 459.79C442.281 457.501 442.33 455.197 442.634 452.919V452.919Z" fill="#AA6550"/>
<path d="M425.436 510.924C424.723 510.818 424.024 510.629 423.354 510.362C422.501 510.02 421.583 509.87 420.665 509.924C419.747 509.978 418.853 510.234 418.045 510.674C417.557 511.008 417.165 511.465 416.91 511.999C416.654 512.532 416.543 513.124 416.588 513.714C416.662 515.206 416.928 516.682 417.379 518.107C417.977 519.891 417.896 521.833 417.15 523.561C416.645 524.46 415.935 525.226 415.077 525.798C414.22 526.37 413.239 526.731 412.216 526.851C411.209 526.954 410.192 526.852 409.226 526.552C408.26 526.251 407.365 525.758 406.594 525.102C405.163 523.933 404.106 522.369 403.555 520.605C402.856 517.732 402.582 514.772 402.743 511.819C402.778 509.824 403.166 507.85 403.888 505.989C404.119 505.282 404.536 504.649 405.095 504.157C405.095 504.157 404.762 504.865 404.387 506.239C403.9 508.093 403.675 510.007 403.721 511.923C403.696 514.733 404.046 517.534 404.762 520.251C405.229 521.808 406.195 523.168 407.513 524.12C408.83 525.073 410.424 525.564 412.049 525.519C412.854 525.42 413.626 525.138 414.305 524.694C414.983 524.25 415.551 523.656 415.963 522.958C416.568 521.516 416.635 519.905 416.151 518.419C415.717 516.88 415.486 515.291 415.464 513.693C415.449 512.931 415.633 512.179 415.998 511.511C416.363 510.843 416.897 510.281 417.546 509.883C418.47 509.409 419.494 509.163 420.533 509.163C421.572 509.163 422.596 509.409 423.521 509.883C424.833 510.424 425.561 510.84 425.436 510.924Z" fill="#AA6550"/>
<path d="M407.073 523.999C407.073 523.999 407.406 524.686 407.073 525.956C406.817 526.848 406.359 527.668 405.734 528.354C405.11 529.04 404.335 529.573 403.471 529.912C402.156 530.354 400.749 530.446 399.387 530.18C398.025 529.913 396.757 529.297 395.705 528.392C393.209 526.166 391.666 523.064 391.396 519.731C391.038 516.448 391.715 513.136 393.332 510.258C394.663 507.933 396.598 506.012 398.932 504.699C400.468 503.807 402.155 503.207 403.908 502.929C404.545 502.777 405.208 502.777 405.845 502.929C403.598 503.498 401.44 504.374 399.432 505.531C397.101 507.005 395.235 509.109 394.052 511.6C392.869 514.092 392.417 516.868 392.749 519.606C392.985 522.6 394.329 525.398 396.517 527.455C397.4 528.252 398.47 528.813 399.627 529.086C400.785 529.359 401.992 529.335 403.138 529.016C403.906 528.757 404.609 528.336 405.201 527.783C405.794 527.231 406.261 526.558 406.573 525.81C407.011 524.707 406.948 523.999 407.073 523.999Z" fill="#AA6550"/>
<path d="M433.161 544.382C434.192 543.942 435.334 543.832 436.43 544.069C439.291 544.367 441.969 545.621 444.029 547.63L442.926 548.088C442.906 546.529 442.997 544.97 443.196 543.424C444.216 534.388 448.464 528.121 448.713 528.35C448.963 528.579 445.528 534.888 444.549 543.59C444.368 545.083 444.263 546.584 444.237 548.088V549.649L443.155 548.546C441.289 546.689 438.923 545.416 436.346 544.881C434.368 544.527 433.161 544.527 433.161 544.382Z" fill="#AA6550"/>
<path d="M426.228 486.085C426.561 486.21 425.499 488.813 422.626 490.416C419.753 492.019 417.005 491.644 417.067 491.29C417.129 490.936 419.482 490.666 421.96 489.208C424.437 487.751 425.874 485.877 426.228 486.085Z" fill="#AA6550"/>
<path d="M576.798 486.065C576.798 486.065 576.028 486.897 574.716 488.501C572.637 490.759 570.999 493.386 569.886 496.246C569.554 497.219 569.372 498.237 569.344 499.265C569.347 500.361 569.619 501.441 570.136 502.408C571.555 504.545 573.676 506.121 576.132 506.864C582.292 508.796 588.728 509.704 595.182 509.55C598.763 509.55 602.636 509.758 606.591 509.987L612.65 510.695C614.732 510.924 616.814 511.486 618.896 511.861C627.933 513.706 636.46 517.5 643.88 522.979C647.924 525.996 651.441 529.661 654.29 533.826C655.006 534.916 655.666 536.042 656.268 537.199C656.872 538.427 657.288 539.614 657.788 540.821C658.716 543.284 659.413 545.828 659.87 548.421C661.965 559.333 660.237 570.633 654.977 580.421C649.542 590.135 640.814 597.585 630.368 601.428C625.46 603.27 620.284 604.297 615.044 604.468C610.047 604.496 605.067 603.895 600.221 602.678C595.749 601.527 591.197 600.713 586.604 600.242C582.36 599.832 578.084 600.588 574.237 602.428C570.702 604.326 567.558 606.876 564.972 609.944C562.37 612.859 560.163 615.919 557.977 618.813C553.667 624.622 549.086 629.744 543.756 632.429C541.313 633.739 538.595 634.452 535.824 634.511C533.509 634.539 531.21 634.114 529.058 633.262C527.342 632.579 525.768 631.584 524.415 630.327C523.443 629.382 522.653 628.267 522.083 627.037C521.596 626.039 521.347 624.941 521.354 623.831C521.5 623.831 521.542 624.976 522.478 626.85C523.096 627.975 523.898 628.989 524.852 629.848C526.181 630.985 527.705 631.874 529.349 632.471C531.599 633.303 534.002 633.635 536.393 633.444C538.784 633.253 541.105 632.545 543.194 631.368C548.191 628.723 552.543 623.748 556.748 617.918C558.83 615.003 561.079 611.88 563.723 608.84C566.396 605.548 569.675 602.799 573.383 600.741C577.509 598.715 582.108 597.852 586.687 598.243C591.383 598.698 596.038 599.498 600.616 600.637C605.302 601.796 610.114 602.362 614.94 602.324C619.925 602.12 624.845 601.122 629.514 599.367C639.469 595.672 647.785 588.558 652.978 579.297C657.997 569.947 659.657 559.159 657.684 548.733C657.203 546.255 656.507 543.823 655.602 541.467C655.102 540.301 654.686 539.093 654.165 538.052C653.62 536.961 653.008 535.904 652.333 534.888C649.645 530.906 646.326 527.39 642.506 524.478C635.326 519.125 627.073 515.389 618.313 513.526C616.231 513.131 614.149 512.569 612.213 512.339L606.258 511.569C602.344 511.299 598.596 511.132 594.953 511.007C588.343 511.064 581.771 510.015 575.507 507.905C572.899 507 570.68 505.229 569.219 502.887C568.646 501.761 568.366 500.507 568.407 499.244C568.464 498.125 568.696 497.022 569.095 495.975C570.313 493.049 572.12 490.406 574.404 488.209C575.097 487.386 575.903 486.664 576.798 486.065Z" fill="#FAFAFA"/>
<path d="M735.176 624.893C734.604 623.392 734.267 621.812 734.176 620.208C733.713 615.84 734.001 611.425 735.03 607.154C736.557 600.792 739.308 594.788 743.129 589.478C747.78 582.96 753.727 577.474 760.597 573.363C767.507 569.396 775.017 566.583 782.833 565.035C789.169 563.727 795.621 563.064 802.091 563.057C806.431 563.009 810.769 563.225 815.083 563.702C816.675 563.767 818.251 564.047 819.767 564.535C819.767 564.91 813.001 564.16 802.112 564.535C795.764 564.77 789.451 565.578 783.249 566.95C775.679 568.596 768.41 571.405 761.7 575.278C755.075 579.242 749.306 584.487 744.732 590.706C740.978 595.771 738.196 601.49 736.529 607.57C735.404 611.678 734.892 615.93 735.009 620.187C735.182 621.749 735.238 623.322 735.176 624.893V624.893Z" fill="#FAFAFA"/>
<path d="M848.937 661.119C848.303 662.455 847.475 663.69 846.48 664.784C844.002 667.924 841.211 670.805 838.152 673.383C833.593 677.246 828.546 680.494 823.141 683.043C809.808 689.455 794.729 691.277 780.252 688.227C774.391 687.036 768.714 685.076 763.367 682.398C759.768 680.629 756.357 678.502 753.186 676.048C751.957 675.228 750.861 674.223 749.938 673.07C750.188 672.737 754.935 676.88 764.033 681.023C775.838 686.504 788.939 688.581 801.86 687.021C814.781 685.462 827.011 680.327 837.174 672.196C844.981 665.971 848.604 660.807 848.937 661.119Z" fill="#FAFAFA"/>
<path d="M744.358 654.415C743.758 654.748 743.122 655.013 742.464 655.207C740.679 655.932 739.057 657.008 737.696 658.371C735.608 660.591 733.98 663.202 732.907 666.054C731.455 669.859 730.326 673.78 729.534 677.775C728.678 682.692 727.552 687.557 726.161 692.35C725.285 695.077 724.075 697.685 722.56 700.115C720.882 702.668 718.833 704.956 716.48 706.903C711.403 710.944 705.549 713.899 699.283 715.585C692.87 717.5 686.083 718.541 679.254 719.874C666.405 721.99 654.223 727.065 643.672 734.697C639.157 738.083 635.159 742.109 631.805 746.648C628.949 750.654 626.671 755.041 625.039 759.682C622.634 766.428 621.877 773.653 622.832 780.751C623.581 785.769 624.726 788.392 624.497 788.476C624.129 787.89 623.835 787.26 623.623 786.602C623.301 785.829 623.03 785.036 622.811 784.228C622.475 783.135 622.204 782.023 621.999 780.897C620.696 773.648 621.24 766.186 623.581 759.203C625.165 754.37 627.437 749.792 630.327 745.607C633.732 740.872 637.815 736.663 642.444 733.115C653.19 725.189 665.662 719.923 678.837 717.75C685.729 716.397 692.454 715.377 698.679 713.586C704.687 712.008 710.312 709.224 715.21 705.404C717.425 703.618 719.361 701.513 720.956 699.158C722.413 696.879 723.587 694.432 724.454 691.871C725.898 687.127 727.093 682.311 728.035 677.442C728.918 673.369 730.165 669.383 731.762 665.533C732.983 662.587 734.805 659.927 737.113 657.726C738.586 656.344 740.361 655.324 742.297 654.749C742.96 654.523 743.657 654.41 744.358 654.415Z" fill="#FAFAFA"/>
<path d="M688.58 645.733C689.3 647.04 689.672 648.51 689.663 650.002C689.87 654.104 688.697 658.157 686.332 661.515C684.738 663.885 682.595 665.835 680.086 667.199C678.671 667.971 677.148 668.526 675.568 668.844C673.893 669.154 672.183 669.224 670.488 669.052C666.847 668.656 663.388 667.257 660.494 665.013C657.316 662.612 655.042 659.208 654.04 655.352C653.403 652.842 653.367 650.217 653.936 647.69C654.551 645.292 655.688 643.06 657.267 641.153C658.616 639.346 660.144 637.679 661.827 636.177C662.639 635.429 663.525 634.767 664.471 634.199C665.447 633.549 666.571 633.155 667.74 633.054L668.01 634.907L666.99 635.157L666.47 633.366C670.256 632.291 674.294 632.511 677.942 633.991C680.724 635.058 683.209 636.779 685.187 639.009C686.454 640.413 687.455 642.035 688.143 643.797C688.581 645.026 688.685 645.713 688.601 645.733C687.471 643.574 686.072 641.566 684.437 639.758C682.465 637.811 680.082 636.331 677.463 635.428C674.114 634.211 670.46 634.116 667.053 635.157L666.532 633.366L667.552 633.075L667.844 634.949C666.059 635.377 664.437 636.317 663.18 637.655C661.645 639.11 660.251 640.706 659.016 642.423C657.571 644.122 656.561 646.147 656.075 648.324C655.589 650.5 655.641 652.763 656.226 654.915C657.123 658.295 659.105 661.287 661.868 663.43C664.452 665.447 667.529 666.734 670.779 667.157C672.283 667.332 673.803 667.297 675.297 667.053C676.701 666.795 678.061 666.339 679.336 665.7C681.65 664.514 683.653 662.802 685.187 660.703C687.503 657.645 688.806 653.94 688.914 650.106C688.851 647.295 688.372 645.796 688.58 645.733Z" fill="#FAFAFA"/>
<path d="M554.229 577.839C554.265 578.025 554.265 578.216 554.229 578.401C554.229 578.818 554.229 579.359 554.229 580.025C554.229 581.545 554.042 583.648 553.917 586.271C553.583 591.726 553.271 599.617 552.834 609.361C552.022 628.869 551.21 655.81 550.585 685.604C549.961 715.397 549.565 742.359 549.274 761.868C549.128 771.57 549.003 779.44 548.92 784.999C548.92 787.643 548.816 789.746 548.795 791.245C548.795 791.911 548.795 792.452 548.795 792.89C548.822 793.076 548.822 793.265 548.795 793.452C548.763 793.266 548.763 793.076 548.795 792.89C548.795 792.452 548.795 791.911 548.795 791.245C548.795 789.725 548.795 787.622 548.795 784.999V761.889C548.795 742.359 549.149 715.397 549.794 685.583C550.44 655.769 551.335 628.848 552.355 609.34C552.896 599.596 553.334 591.705 553.792 586.271C554 583.606 554.166 581.504 554.291 580.025C554.291 579.359 554.416 578.818 554.458 578.381C554.359 578.211 554.282 578.029 554.229 577.839V577.839Z" fill="#263238"/>
<g opacity="0.2">
<path opacity="0.2" d="M514.442 771.32C526.06 776.879 541.238 766.198 547.171 754.789C547.171 754.789 550.273 729.597 549.857 716.73C549.045 692.912 550.794 669.323 549.982 645.504C548.158 659.765 542.259 673.196 532.993 684.188C530.432 687.207 527.559 690.205 526.601 694.036C524.894 700.907 530.14 713.253 533.513 719.478C543.923 738.508 521.229 771.528 515.192 770.841" fill="black"/>
</g>
<g opacity="0.2">
<path opacity="0.2" d="M731.866 615.898C735.655 663.368 739.458 710.845 743.275 758.328C743.387 762.828 744.23 767.279 745.773 771.507C746.564 773.619 747.844 775.513 749.509 777.033C751.174 778.553 753.176 779.656 755.351 780.252C762.096 781.626 768.655 775.817 770.549 769.196C772.444 762.576 770.945 755.518 769.279 748.834C766.448 737.446 763.262 726.161 760.056 714.877C750.77 682.12 741.478 649.37 732.178 616.627" fill="black"/>
</g>
<path d="M601.365 859.056C602.803 856.712 603.877 854.164 604.551 851.498C605.717 846.355 604.988 838.402 600.991 829.803C599.034 825.494 596.264 821.017 593.475 816.104C590.285 810.888 587.912 805.215 586.437 799.281C585.194 792.549 585.696 785.611 587.895 779.127C589.977 772.423 592.996 765.907 595.432 759.078C600.32 746.311 600.687 732.254 596.473 719.249C594.658 713.619 591.998 708.297 588.582 703.467C585.566 699.272 582.034 695.474 578.068 692.162C572.261 687.378 565.638 683.682 558.518 681.253C553.458 679.566 550.502 679.17 550.544 678.921C551.243 678.88 551.945 678.943 552.626 679.108C554.676 679.406 556.702 679.858 558.684 680.461C566.046 682.59 572.925 686.125 578.942 690.871C583.096 694.185 586.799 698.027 589.956 702.302C593.543 707.251 596.352 712.721 598.284 718.52C602.747 731.941 602.423 746.493 597.368 759.702C594.869 766.656 591.83 773.131 589.831 779.648C587.697 785.784 587.167 792.363 588.29 798.761C589.66 804.525 591.907 810.044 594.953 815.125C597.639 820.06 600.366 824.598 602.302 829.075C606.216 838.007 606.758 846.314 605.259 851.602C604.703 853.624 603.839 855.548 602.698 857.307C601.927 858.556 601.428 859.097 601.365 859.056Z" fill="#FAFAFA"/>
<path d="M796.824 516.545C796.42 518.06 795.712 519.477 794.742 520.709C792.374 524.235 789.297 527.227 785.706 529.495C780.354 532.872 774.257 534.887 767.947 535.366C760.273 535.887 752.571 534.904 745.274 532.472C737.837 530.31 731.04 526.365 725.474 520.98C723.083 518.559 721.132 515.741 719.707 512.652C718.5 509.947 717.741 507.064 717.458 504.116C716.983 499.846 717.795 495.532 719.79 491.728C720.095 491.14 720.443 490.577 720.831 490.041C721.096 489.629 721.403 489.245 721.747 488.896C722.268 488.334 722.58 488.042 722.642 488.105C722.705 488.167 721.706 489.479 720.56 492.102C718.977 495.837 718.444 499.934 719.02 503.949C719.373 506.706 720.16 509.391 721.352 511.902C722.77 514.757 724.656 517.353 726.931 519.585C732.319 524.651 738.834 528.362 745.94 530.411C752.983 532.768 760.406 533.778 767.822 533.389C773.849 533.034 779.706 531.257 784.915 528.204C788.428 526.134 791.532 523.438 794.076 520.251C794.927 518.969 795.845 517.732 796.824 516.545Z" fill="#FAFAFA"/>
<path d="M768.321 740.506C768.321 740.506 768.217 740.319 768.092 739.923C767.967 739.528 767.78 738.903 767.551 738.174C767.093 736.571 766.427 734.323 765.573 731.45L758.494 706.611C752.581 685.562 744.462 656.643 735.592 624.58C731.137 608.549 726.91 593.35 723.1 579.38C721.177 572.81 719.695 566.119 718.666 559.351C717.791 553.422 717.791 547.396 718.666 541.467C719.907 532.797 724.063 524.808 730.45 518.814C732.225 517.26 734.191 515.938 736.3 514.88L737.987 514.172C738.168 514.071 738.365 514.001 738.57 513.963C735.72 515.301 733.077 517.04 730.72 519.127C724.548 525.139 720.574 533.051 719.436 541.592C718.638 547.447 718.701 553.389 719.623 559.226C720.68 565.946 722.183 572.589 724.12 579.109C727.993 593.017 732.261 608.257 736.737 624.289C745.586 656.331 753.602 685.333 759.41 706.403C762.263 716.813 764.553 725.37 766.177 731.387C766.926 734.281 767.53 736.571 767.947 738.195C768.134 738.924 768.28 739.507 768.384 739.965C768.385 740.147 768.364 740.329 768.321 740.506Z" fill="#263238"/>
<path d="M683.521 279.447C683.692 277.966 683.692 276.471 683.521 274.991C682.889 270.953 680.854 267.268 677.775 264.581C673.142 260.666 667.171 258.703 661.119 259.105C654.311 259.105 647.065 261.396 639.57 263.915C635.823 265.143 632.096 266.33 628.431 267.142C624.894 267.924 621.289 268.363 617.667 268.454C611.529 268.614 605.403 267.813 599.512 266.08C595.564 264.891 591.759 263.271 588.165 261.25C587.182 260.722 586.23 260.138 585.313 259.501C584.973 259.304 584.659 259.066 584.376 258.793C584.376 258.793 585.792 259.584 588.374 260.875C592.005 262.73 595.813 264.215 599.741 265.31C605.562 266.913 611.593 267.615 617.626 267.392C621.185 267.273 624.725 266.827 628.202 266.059C631.804 265.247 635.469 263.977 639.237 262.832C646.711 260.313 654.103 258.044 661.098 258.044C667.356 257.701 673.5 259.823 678.212 263.956C681.349 266.769 683.361 270.622 683.875 274.804C684.122 276.358 684.001 277.948 683.521 279.447V279.447Z" fill="#455A64"/>
<path d="M712.169 341.678C712.169 341.678 711.961 341.428 711.67 340.907C711.378 340.387 711.004 339.596 710.525 338.555C709.244 335.615 708.267 332.553 707.61 329.415C706.611 324.738 706.288 319.942 706.652 315.174C707.349 309.399 708.448 303.681 709.942 298.06C711.391 292.517 711.391 286.696 709.942 281.154C709.25 278.779 708.049 276.584 706.423 274.72C704.973 273.149 703.156 271.962 701.135 271.264C698.189 270.147 694.922 270.229 692.036 271.493C691.032 272.051 690.09 272.714 689.226 273.471C689.882 272.473 690.786 271.663 691.849 271.118C693.319 270.388 694.92 269.96 696.558 269.86C698.196 269.76 699.837 269.99 701.385 270.536C703.555 271.235 705.516 272.466 707.089 274.117C708.829 276.057 710.129 278.351 710.899 280.841C712.412 286.559 712.412 292.571 710.899 298.289C709.415 303.866 708.295 309.534 707.547 315.257C707.154 319.931 707.392 324.637 708.255 329.248C708.842 332.363 709.699 335.421 710.816 338.388C711.711 340.491 712.253 341.636 712.169 341.678Z" fill="#455A64"/>
<path d="M687.061 276.469C687.015 275.978 687.015 275.483 687.061 274.991C687.061 273.929 687.061 272.534 687.228 270.827C687.459 265.668 686.883 260.505 685.521 255.524C684.498 252.14 682.83 248.987 680.607 246.239C678.091 243.075 674.635 240.794 670.738 239.722C666.377 238.71 661.823 238.897 657.559 240.263C652.943 241.719 648.518 243.726 644.38 246.239C640.182 248.772 635.813 251.012 631.305 252.943C627.006 254.621 622.448 255.537 617.835 255.649C613.675 255.754 609.522 255.249 605.509 254.15C602.033 253.141 598.68 251.744 595.516 249.986C590.951 247.408 586.929 243.973 583.669 239.868C582.771 238.768 581.964 237.599 581.254 236.37C580.975 235.965 580.738 235.532 580.546 235.079C580.886 235.434 581.186 235.825 581.441 236.245C582.209 237.42 583.057 238.54 583.981 239.597C587.322 243.526 591.35 246.814 595.869 249.299C599.003 250.971 602.313 252.291 605.738 253.234C609.677 254.268 613.744 254.73 617.814 254.608C622.301 254.473 626.731 253.564 630.91 251.922C635.365 249.989 639.685 247.756 643.839 245.239C648.058 242.698 652.567 240.671 657.268 239.201C661.713 237.805 666.453 237.632 670.988 238.702C675.078 239.849 678.69 242.279 681.294 245.635C683.573 248.485 685.258 251.763 686.249 255.274C687.586 260.329 688.057 265.573 687.644 270.785C687.54 272.638 687.394 274.054 687.269 274.949C687.265 275.463 687.195 275.973 687.061 276.469V276.469Z" fill="#455A64"/>
<path d="M632.075 797.074L787.83 773.86L785.331 759.994H869.028L871.464 781.314C873.249 790.58 872.976 800.124 870.664 809.273C868.352 818.422 864.058 826.951 858.086 834.256C852.113 841.562 844.608 847.465 836.101 851.549C827.594 855.633 818.294 857.798 808.858 857.89L627.266 855.808L632.075 797.074Z" fill="#B78876"/>
<path d="M643.318 799.76C642.485 800.031 631.992 795.325 622.602 790.974C612.632 786.34 601.687 784.197 590.706 784.728L547.421 786.935C547.421 786.935 550.086 794.076 554.687 796.616C559.288 799.156 586.188 799.698 586.188 799.698L584.793 801.113C579.128 806.954 571.399 810.34 563.265 810.545L559.101 810.649C556.031 810.406 553 809.812 550.065 808.879L539.384 804.57C536.157 803.112 532.743 803.341 531.327 806.652C530.057 809.587 530.994 813.647 539.822 818.082C544.735 820.559 563.015 826.889 563.015 826.889C563.134 829.483 563.489 832.062 564.077 834.592C564.868 837.257 572.051 839.901 572.051 839.901C573.914 843.858 576.042 847.683 578.422 851.352C579.255 852.289 585.771 854.309 592.684 856.266C603.848 859.405 615.674 859.311 626.787 855.995L643.297 851.082V800.843" fill="#B78876"/>
<path d="M584.085 832.573C576.459 832.373 568.982 830.406 562.245 826.826C562.37 826.535 567.096 828.367 573.113 829.928C579.13 831.49 584.127 832.26 584.085 832.573Z" fill="#AA6550"/>
<path d="M582.566 842.712C580.539 843.15 578.429 842.998 576.486 842.275C574.443 841.905 572.545 840.967 571.01 839.568C572.97 839.984 574.898 840.54 576.778 841.234C578.74 841.588 580.674 842.082 582.566 842.712V842.712Z" fill="#AA6550"/>
<path d="M828.908 810.17C828.7 810.17 827.68 807.151 825.181 802.592C823.717 799.925 822.046 797.377 820.184 794.972C817.905 792.032 815.377 789.294 812.627 786.789C809.835 784.327 806.84 782.105 803.674 780.148C801.084 778.557 798.376 777.165 795.575 775.984C790.766 774.006 787.58 773.298 787.643 773.09C788.415 773.152 789.176 773.306 789.912 773.548C790.787 773.72 791.649 773.949 792.494 774.235C793.493 774.547 794.576 774.859 795.867 775.359C798.753 776.447 801.54 777.785 804.195 779.357C807.447 781.299 810.513 783.536 813.355 786.04C816.144 788.584 818.701 791.371 820.996 794.368C822.838 796.846 824.461 799.479 825.848 802.238C826.493 803.383 826.909 804.507 827.347 805.465C827.712 806.276 828.025 807.111 828.283 807.963C828.582 808.67 828.792 809.411 828.908 810.17V810.17Z" fill="#AA6550"/>
<path d="M590.477 795.867C589.52 797.188 588.401 798.384 587.146 799.427C584.27 802.142 581.107 804.537 577.714 806.568C574.279 808.568 570.547 810.009 566.659 810.836C565.073 811.268 563.428 811.443 561.787 811.357C561.683 810.961 569.282 810.274 577.152 805.631C580.488 803.629 583.656 801.359 586.625 798.844C587.81 797.73 589.1 796.733 590.477 795.867V795.867Z" fill="#AA6550"/>
<path d="M142.576 746.482C146.282 746.482 114.219 832.635 105.953 854.642C105.037 857.078 104.412 859.222 104.412 859.222L328.894 859.597L326.25 650.709C326.259 650.571 326.259 650.432 326.25 650.293L307.512 500.888C307.42 500.164 307.115 499.484 306.638 498.932C306.16 498.38 305.53 497.981 304.826 497.786C295.936 495.392 263.894 487.126 239.389 486.21C210.678 485.148 169.121 490.853 169.121 490.853C169.121 490.853 131.791 494.559 111.179 502.054C110.382 502.339 109.708 502.89 109.272 503.615C108.835 504.34 108.663 505.194 108.785 506.031L142.576 746.482Z" fill="#FF725E"/>
<path d="M246.239 653.832C245.953 654.776 245.576 655.689 245.114 656.56C244.656 657.614 244.127 658.637 243.532 659.62C242.812 660.96 242.02 662.26 241.158 663.514C240.148 665.067 239.05 666.562 237.869 667.99C236.571 669.656 235.181 671.247 233.705 672.758C230.275 676.213 226.509 679.317 222.462 682.023C218.356 684.646 214.005 686.863 209.47 688.643C207.388 689.372 205.306 690.122 203.412 690.601C201.632 691.105 199.824 691.508 197.999 691.808C196.505 692.096 194.997 692.304 193.481 692.433C192.335 692.59 191.18 692.666 190.024 692.662C189.049 692.769 188.064 692.769 187.089 692.662C187.089 692.433 191.253 692.454 197.853 691.121C199.644 690.768 201.416 690.323 203.162 689.789C205.077 689.289 207.034 688.518 209.096 687.707C213.546 685.909 217.819 683.699 221.858 681.107C225.85 678.448 229.58 675.415 232.997 672.05C234.517 670.447 236.016 668.968 237.161 667.407C238.357 666.026 239.476 664.58 240.513 663.076C244.427 657.601 246.03 653.728 246.239 653.832Z" fill="#263238"/>
<g opacity="0.2">
<path opacity="0.2" d="M112.033 838.298C122.553 842.61 134.007 844.134 145.289 842.722C156.57 841.311 167.296 837.011 176.429 830.241C184.528 824.369 191.316 816.687 200.06 811.794C212.177 805.048 226.606 804.403 240.451 803.466C258.96 802.134 277.635 799.864 295.041 793.41C298.673 792.349 301.966 790.361 304.597 787.643C306.992 784.749 307.804 780.189 305.451 777.233C303.098 774.276 298.622 774.068 294.77 774.193C236.724 775.9 183.675 780.543 127.169 793.972" fill="black"/>
</g>
<path d="M174.596 271.285C192.543 253.005 220.858 242.137 244.302 252.547C260.083 259.459 270.785 274.262 284.63 284.485C294.707 291.938 307.157 297.706 312.446 309.073C317.109 319.088 314.861 330.768 313.737 341.761C312.612 352.754 313.403 365.433 321.919 372.491C326.374 376.176 332.329 377.655 337.305 380.528C347.444 386.337 353.461 397.642 355.627 409.114C357.792 420.586 356.626 432.411 355.46 444.05L307.137 453.252L299.204 439.907L296.477 460.831L234.808 466.39L174.596 271.285Z" fill="#263238"/>
<path d="M166.623 291.231V304.66L162.813 506.218C162.48 529.578 184.84 549.462 209.866 549.628C235.121 549.795 245.427 530.89 246.155 507.218C246.905 482.463 248.237 456.396 248.237 456.396C248.237 456.396 280.279 451.982 288.045 410.592C291.897 389.98 291.793 356.023 290.814 328.228C290.607 322.297 289.203 316.469 286.684 311.095C284.166 305.722 280.587 300.913 276.162 296.959C271.737 293.004 266.558 289.986 260.936 288.086C255.314 286.185 249.365 285.442 243.449 285.901L166.623 291.231Z" fill="#FFBE9D"/>
<path d="M279.655 354.94C279.633 356.33 279.067 357.656 278.078 358.633C277.09 359.61 275.757 360.16 274.367 360.166C273.687 360.202 273.006 360.102 272.365 359.871C271.725 359.64 271.136 359.283 270.636 358.821C270.135 358.36 269.732 357.802 269.45 357.182C269.169 356.562 269.014 355.892 268.995 355.211C269.022 353.82 269.589 352.495 270.577 351.516C271.564 350.537 272.893 349.98 274.284 349.964C274.966 349.928 275.648 350.028 276.29 350.261C276.932 350.493 277.521 350.852 278.022 351.316C278.523 351.78 278.926 352.34 279.206 352.962C279.487 353.585 279.639 354.257 279.655 354.94Z" fill="#263238"/>
<path d="M282.798 345.613C282.111 346.3 278.155 343.177 272.388 343.052C266.621 342.927 262.353 345.654 261.749 344.925C261.458 344.613 262.166 343.385 264.039 342.094C266.566 340.428 269.552 339.598 272.576 339.72C275.593 339.77 278.514 340.792 280.904 342.635C282.569 344.03 283.131 345.3 282.798 345.613Z" fill="#263238"/>
<path d="M223.066 354.94C223.039 356.328 222.471 357.651 221.483 358.627C220.496 359.603 219.166 360.155 217.778 360.166C217.097 360.202 216.417 360.102 215.776 359.871C215.135 359.64 214.547 359.283 214.046 358.821C213.546 358.36 213.143 357.802 212.861 357.182C212.579 356.562 212.424 355.892 212.406 355.211C212.433 353.82 213 352.495 213.987 351.516C214.974 350.537 216.304 349.98 217.694 349.964C218.376 349.928 219.058 350.028 219.701 350.261C220.343 350.493 220.932 350.852 221.433 351.316C221.934 351.78 222.336 352.34 222.617 352.962C222.897 353.585 223.05 354.257 223.066 354.94Z" fill="#263238"/>
<path d="M226.293 345.134C225.606 345.8 221.65 342.698 215.883 342.552C210.116 342.406 205.847 345.175 205.244 344.447C204.952 344.134 205.66 342.885 207.534 341.615C210.062 339.95 213.045 339.113 216.07 339.221C219.087 339.276 222.006 340.298 224.398 342.136C226.064 343.551 226.626 344.821 226.293 345.134Z" fill="#263238"/>
<path d="M245.968 388.377C245.968 388.044 249.549 387.523 255.337 386.94C256.815 386.836 258.21 386.586 258.48 385.587C258.651 384.077 258.353 382.55 257.627 381.215C256.357 377.613 255.004 373.865 253.588 369.91C248.008 353.857 244.011 340.761 244.656 340.428C245.301 340.095 250.361 353.066 255.94 369.139C257.294 373.095 258.585 376.863 259.792 380.486C260.678 382.274 260.892 384.321 260.396 386.253C260.17 386.767 259.829 387.222 259.399 387.583C258.97 387.944 258.463 388.201 257.918 388.335C257.102 388.538 256.261 388.629 255.42 388.606C249.59 388.71 245.988 388.627 245.968 388.377Z" fill="#263238"/>
<path d="M248.071 456.396C228.46 456.16 209.301 450.48 192.731 439.99C192.731 439.99 205.452 468.951 247.238 466.202L248.071 456.396Z" fill="#EB996E"/>
<path d="M243.157 402.076C242.105 400.662 240.71 399.537 239.104 398.809C237.498 398.08 235.733 397.772 233.975 397.912C232.705 397.994 231.463 398.331 230.326 398.904C229.188 399.476 228.178 400.272 227.355 401.244C226.564 402.181 226.079 403.337 225.963 404.557C225.848 405.778 226.108 407.004 226.709 408.073C227.612 409.123 228.806 409.881 230.141 410.252C231.475 410.622 232.889 410.588 234.204 410.155C236.936 409.265 239.468 407.851 241.658 405.991C242.323 405.551 242.896 404.985 243.344 404.325C243.548 404.016 243.656 403.654 243.656 403.284C243.656 402.914 243.548 402.552 243.344 402.243" fill="#EB996E"/>
<path d="M228.958 391.812C229.895 391.812 229.728 398.058 234.933 402.597C240.138 407.136 246.822 406.657 246.843 407.531C246.843 407.927 245.323 408.718 242.512 408.697C238.859 408.658 235.34 407.323 232.581 404.929C229.926 402.64 228.268 399.406 227.959 395.914C227.771 393.29 228.521 391.771 228.958 391.812Z" fill="#263238"/>
<path d="M228.125 328.415C227.501 329.956 221.879 329.061 215.03 329.685C208.18 330.31 202.767 331.996 201.913 330.58C201.538 329.893 202.517 328.498 204.765 326.999C207.751 325.23 211.1 324.163 214.559 323.878C218.018 323.593 221.497 324.098 224.732 325.355C227.168 326.416 228.375 327.686 228.125 328.415Z" fill="#263238"/>
<path d="M283.007 334.016C281.737 335.286 276.969 333.787 271.16 333.558C265.352 333.329 260.459 334.141 259.355 332.746C258.876 332.08 259.688 330.789 261.875 329.623C264.88 328.155 268.22 327.508 271.556 327.749C274.878 327.859 278.112 328.85 280.925 330.622C282.924 332.017 283.569 333.391 283.007 334.016Z" fill="#263238"/>
<path d="M123.671 498.244C123.671 498.244 56.7137 513.943 43.722 577.36C37.7467 606.509 29.3978 774.047 68.4146 800.135C118.778 833.738 182.925 803.175 182.925 803.175L174.597 722.143H132.957L127.356 633.366C128.98 640.299 123.671 498.244 123.671 498.244Z" fill="#FF725E"/>
<path d="M361.853 777.108C374.986 775.761 387.11 769.448 395.744 759.46C404.378 749.471 408.87 736.562 408.302 723.371L380.945 607.133C380.945 607.133 363.206 507.405 307.137 498.411L326.25 650.397L324.418 682.439C324.418 682.439 325.293 703.634 327.437 743.359L361.853 777.108Z" fill="#FF725E"/>
<path d="M369.097 704.383C365.716 704.508 362.348 704.877 359.02 705.487C350.986 707.119 343.625 711.121 337.888 716.978C332.151 722.834 328.3 730.275 326.833 738.341C326.288 741.688 325.989 745.069 325.937 748.46C325.718 747.56 325.614 746.637 325.625 745.711C325.514 743.197 325.667 740.677 326.083 738.195C327.414 729.911 331.293 722.247 337.181 716.27C343.07 710.292 350.674 706.297 358.937 704.842C361.416 704.385 363.933 704.176 366.453 704.217C367.338 704.164 368.226 704.22 369.097 704.383Z" fill="#263238"/>
<path d="M196.354 266.642C203.89 276.761 207.471 284.527 211.989 302.536C214.217 311.343 207.034 317.568 199.914 322.96C199.148 323.542 198.249 323.922 197.298 324.064C196.347 324.207 195.375 324.107 194.473 323.775C193.571 323.443 192.766 322.89 192.134 322.165C191.502 321.44 191.063 320.568 190.857 319.629V319.629C190.857 319.629 193.314 347.216 183.341 359.583C178.677 365.392 178.469 372.824 179.573 379.091C180.824 385.465 183.923 391.33 188.484 395.955C200.06 408.114 203.266 427.956 195.292 442.863C192.982 446.527 190.862 450.307 188.942 454.189C187.971 456.506 187.523 459.008 187.63 461.518C187.752 462.99 187.311 464.454 186.395 465.614C185.479 466.773 184.157 467.542 182.696 467.764C148.433 472.719 113.718 473.76 79.2201 470.866C78.0339 470.771 76.9077 470.305 76 469.536C75.0923 468.766 74.449 467.731 74.1608 466.577C71.4542 455.001 75.9721 442.509 81.7393 432.099C88.1935 420.336 96.3133 409.051 98.6243 395.83C100.706 383.338 97.3127 369.972 102.309 358.354C108.555 344.134 125.212 337.409 133.54 324.355C141.43 312.051 140.785 295.915 147.843 283.132C156.92 266.684 179.219 259.105 196.416 266.621" fill="#263238"/>
<path d="M198.269 281.903C211.365 288.649 217.424 304.66 230.145 312.071C241.721 318.817 256.17 317.047 269.432 315.049C268.953 312.113 268.454 309.157 267.954 306.221C269.147 308.879 270.812 311.298 272.867 313.362C273.911 314.381 275.212 315.097 276.631 315.434C278.05 315.772 279.534 315.718 280.925 315.278C285.38 313.487 285.963 307.366 284.839 302.786C282.803 295.331 278.806 288.558 273.263 283.173C263.36 273.122 250.169 266.973 236.104 265.849C222.039 264.725 208.04 268.702 196.666 277.052" fill="#263238"/>
<path d="M321.045 578.276C321.141 578.819 321.182 579.37 321.17 579.921C321.17 581.087 321.17 582.649 321.315 584.606C321.315 588.77 321.607 594.579 321.919 601.845C322.523 616.419 323.876 636.489 325.521 658.663C327.166 680.836 328.394 700.948 328.79 715.522C328.998 722.809 329.102 728.701 329.04 732.782C329.04 734.739 329.04 736.301 329.04 737.467C329.089 738.014 329.089 738.564 329.04 739.111C328.944 738.568 328.902 738.018 328.915 737.467C328.915 736.301 328.915 734.739 328.769 732.782C328.769 728.618 328.477 722.83 328.165 715.543C327.582 700.969 326.208 680.919 324.584 658.725C322.96 636.531 321.69 616.46 321.295 601.886C321.086 594.599 321.003 588.686 321.045 584.606C321.045 582.649 321.045 581.087 321.045 579.921C321.009 579.374 321.009 578.824 321.045 578.276V578.276Z" fill="#263238"/>
<path d="M133.019 722.164C132.924 721.782 132.875 721.391 132.873 720.998C132.873 720.103 132.749 718.916 132.644 717.646C132.478 714.585 132.249 710.442 131.978 705.362C131.374 694.952 130.458 680.649 129.376 664.805C128.293 648.961 127.294 634.782 126.565 624.268C126.232 619.209 125.961 615.045 125.753 611.984C125.753 610.631 125.628 609.527 125.586 608.653C125.537 608.259 125.537 607.86 125.586 607.466C125.688 607.848 125.751 608.238 125.774 608.632C125.774 609.507 126.003 610.61 126.149 611.963C126.44 615.003 126.836 619.146 127.314 624.226C128.231 634.636 129.397 648.898 130.438 664.742C131.479 680.586 132.311 694.931 132.707 705.32C132.894 710.525 133.04 714.731 133.061 717.625V720.977C133.1 721.373 133.086 721.772 133.019 722.164V722.164Z" fill="#263238"/>
<path d="M133.019 722.164C133.019 722.351 130.937 722.455 127.564 723.559C123.297 724.971 119.505 727.541 116.612 730.982C113.719 734.423 111.838 738.599 111.179 743.046C110.658 746.461 110.929 748.626 110.742 748.647C110.554 748.668 110.533 748.126 110.409 747.148C110.254 745.764 110.254 744.368 110.409 742.984C110.896 738.317 112.766 733.901 115.78 730.304C118.829 726.744 122.853 724.153 127.356 722.851C128.716 722.471 130.111 722.234 131.52 722.143C132.478 722.039 133.019 722.08 133.019 722.164Z" fill="#263238"/>
<path d="M182.821 803.195C182.689 802.776 182.606 802.343 182.571 801.905C182.446 800.947 182.3 799.718 182.092 798.199C181.717 794.847 181.197 790.245 180.552 784.582C179.323 772.965 177.658 757.121 175.825 739.632C175.222 733.552 174.618 727.66 174.077 722.205L174.597 722.684L141.285 722.476L131.604 722.33H129.022C128.725 722.365 128.424 722.365 128.127 722.33C128.418 722.252 128.72 722.217 129.022 722.226H131.604L141.285 722.081L174.597 721.893H175.055V722.372L176.846 739.778C178.553 757.287 180.094 773.09 181.239 784.791C181.738 790.454 182.155 795.076 182.446 798.428C182.571 799.948 182.654 801.197 182.738 802.154C182.794 802.498 182.822 802.847 182.821 803.195V803.195Z" fill="#263238"/>
<path d="M182.821 803.195C182.306 803.416 181.777 803.604 181.239 803.758L176.679 805.215C172.702 806.464 166.935 808.213 159.732 810.128C151.3 812.433 142.733 814.213 134.081 815.458C123.418 816.901 112.58 816.385 102.102 813.939C96.6715 812.767 91.3178 811.265 86.0703 809.441C83.5511 808.525 81.0735 807.609 78.6792 806.61C77.4924 806.11 76.3057 805.631 75.1814 805.028L73.4742 804.174L71.871 803.154C67.9569 800.506 64.5565 797.169 61.8358 793.306C59.4422 789.981 57.3518 786.448 55.5898 782.75C53.1157 777.403 51.0283 771.885 49.3437 766.24C48.7191 764.158 48.2611 762.7 47.9904 761.639C47.8207 761.1 47.6885 760.551 47.5948 759.994C47.8438 760.502 48.0459 761.031 48.1986 761.576L49.7393 766.115C51.5865 771.675 53.784 777.113 56.3184 782.396C58.0937 786.041 60.1837 789.524 62.5645 792.806C65.2515 796.554 68.595 799.785 72.4332 802.342L73.9738 803.32L75.6186 804.153C76.7013 804.736 77.888 805.194 79.0747 805.694C81.4482 806.672 83.905 807.588 86.4242 808.463C91.631 810.269 96.943 811.757 102.331 812.918C112.692 815.338 123.403 815.881 133.956 814.521C142.576 813.321 151.12 811.625 159.544 809.441C166.748 807.609 172.536 805.964 176.554 804.861L181.176 803.591C181.71 803.404 182.261 803.271 182.821 803.195Z" fill="#263238"/>
<path d="M147.489 315.965C149.489 311.051 149.977 305.652 148.89 300.459C147.804 295.266 145.192 290.516 141.389 286.817C137.481 283.245 132.695 280.773 127.519 279.654C122.344 278.534 116.964 278.808 111.929 280.446C107.342 281.826 103.311 284.625 100.415 288.441C95.3143 295.478 96.2512 305.846 101.581 312.779C104.37 316.135 107.842 318.857 111.766 320.763C115.69 322.67 119.976 323.717 124.337 323.835C133.077 324.009 141.744 322.216 149.696 318.588" fill="#263238"/>
<path d="M216.716 646.171C231.29 658.184 265.56 686.624 265.56 686.624L284.735 683.209L226.606 634.303C225.099 633.043 223.169 632.404 221.208 632.516C219.247 632.628 217.403 633.483 216.05 634.907V634.907C215.315 635.671 214.747 636.579 214.38 637.573C214.014 638.567 213.857 639.627 213.919 640.685C213.982 641.742 214.263 642.776 214.744 643.72C215.225 644.664 215.897 645.499 216.716 646.171V646.171Z" fill="#455A64"/>
<path d="M215.279 639.925L207.742 633.116C207.034 632.474 206.601 631.582 206.535 630.627C206.469 629.672 206.775 628.729 207.389 627.995V627.995C207.711 627.618 208.106 627.309 208.55 627.088C208.994 626.866 209.477 626.736 209.973 626.705C210.468 626.674 210.964 626.743 211.432 626.907C211.9 627.071 212.331 627.328 212.698 627.662L219.964 634.324L215.279 639.925Z" fill="#455A64"/>
<path d="M237.64 643.589C236.363 645.714 234.785 647.643 232.955 649.314C231.378 651.226 229.542 652.908 227.5 654.311C228.779 652.182 230.357 650.247 232.185 648.565C233.751 646.65 235.589 644.973 237.64 643.589V643.589Z" fill="#263238"/>
<path d="M238.182 667.532C236.131 666.454 234.186 665.186 232.373 663.743C228.917 661.244 224.232 657.622 219.298 653.333C216.771 651.451 214.683 649.043 213.177 646.275C212.111 643.852 212.044 641.106 212.989 638.634C213.621 636.993 214.686 635.554 216.071 634.47C217.049 633.741 217.695 633.512 217.716 633.575C217.736 633.637 217.195 633.991 216.342 634.803C215.132 635.949 214.229 637.381 213.718 638.967C212.946 641.254 213.08 643.75 214.093 645.942C215.596 648.538 217.615 650.799 220.027 652.583C224.919 656.851 229.5 660.557 232.852 663.201C234.717 664.533 236.497 665.979 238.182 667.532V667.532Z" fill="#263238"/>
<path d="M175.242 728.639C189.066 724.017 203.724 727.14 217.527 722.497C222.267 721.251 226.706 719.063 230.582 716.064C234.975 712.17 237.202 706.445 240.7 701.739C251.11 687.665 270.66 684.75 288.107 683.001C292.153 682.35 296.281 682.406 300.308 683.168C302.321 683.574 304.194 684.492 305.748 685.834C307.302 687.177 308.483 688.897 309.177 690.83C310.301 694.765 307.761 699.678 303.681 700.095C307.512 700.261 310.177 704.134 310.884 707.902C311.592 711.67 310.884 715.543 311.467 719.332C312.175 724.662 315.09 729.638 314.923 735.01C314.694 742.359 308.677 748.418 301.807 751.249C294.936 754.081 287.503 754.456 280.237 755.413C244.427 760.452 217.361 780.751 182.82 796.096" fill="#FFBE9D"/>
<path d="M311.218 712.795C311.57 713.369 312.036 713.865 312.588 714.251C313.139 714.638 313.765 714.907 314.424 715.042C315.084 715.176 315.765 715.174 316.424 715.035C317.083 714.895 317.706 714.622 318.255 714.231C319.324 713.381 320.141 712.255 320.618 710.974C321.095 709.694 321.214 708.308 320.962 706.965C320.417 704.28 319.231 701.765 317.506 699.637C314.464 695.7 311.123 692.003 307.512 688.581L296.477 697.867L311.218 712.795Z" fill="#FFBE9D"/>
<path d="M307.137 700.678C307.137 701.032 300.35 700.469 292.168 701.739C283.985 703.009 277.594 705.466 277.594 705.154C278.84 704.332 280.201 703.701 281.633 703.28C285.013 702.081 288.498 701.203 292.043 700.657C295.59 700.119 299.181 699.931 302.765 700.095C304.243 700.076 305.716 700.273 307.137 700.678V700.678Z" fill="#EB996E"/>
<path d="M312.009 722.372C312.009 722.705 306.325 721.539 299.309 721.747C292.292 721.956 286.713 723.33 286.65 722.997C294.822 720.101 303.704 719.882 312.009 722.372V722.372Z" fill="#EB996E"/>
<path d="M310.843 715.959C310.656 715.959 310.843 714.336 310.531 711.795C310.131 708.499 308.984 705.338 307.179 702.551C306.746 701.878 306.273 701.232 305.763 700.615L305.451 700.22L305.784 699.886C306.734 698.922 307.48 697.776 307.977 696.517C308.474 695.258 308.712 693.911 308.678 692.558C308.678 690.476 308.053 689.31 308.199 689.247C308.943 690.176 309.353 691.327 309.365 692.516C309.524 693.998 309.353 695.497 308.863 696.904C308.374 698.312 307.578 699.594 306.533 700.657V699.928C307.08 700.592 307.587 701.287 308.053 702.01C309.955 704.938 311.06 708.31 311.259 711.795C311.425 713.197 311.282 714.618 310.843 715.959V715.959Z" fill="#EB996E"/>
<path d="M311.239 711.608L329.394 728.639L331.705 738.757L314.924 734.968C312.509 726.432 310.739 718.291 311.239 711.608Z" fill="#455A64"/>
<path d="M286.651 733.303C286.276 733.969 188.63 782.105 188.63 782.105V792.515L288.275 740.673L411.883 736.072V728.743L286.651 733.303Z" fill="#F5F5F5"/>
<path d="M188.63 793.951C189.317 793.493 296.436 783.833 296.436 783.833L411.883 735.947L288.275 740.61L188.63 792.452V793.951Z" fill="#263238"/>
<path d="M291.189 768.322C290.335 762.7 295.707 757.912 301.183 756.392C306.658 754.872 312.509 755.497 318.047 754.31C321.561 753.344 324.999 752.119 328.332 750.646C345.404 744.108 364.142 743.754 382.464 743.504C383.528 745.986 383.695 748.761 382.935 751.353C382.175 753.944 380.536 756.19 378.3 757.704C379.813 762.183 379.613 767.063 377.738 771.403C375.849 775.702 373.268 779.662 370.097 783.125C367.703 786.295 364.621 788.879 361.082 790.683C357.38 792.04 353.445 792.648 349.506 792.473C337.222 792.723 324.064 792.744 313.924 785.852C306.034 780.481 300.579 771.278 291.439 768.572H293.521" fill="#FFBE9D"/>
<path d="M373.012 761.514C372.247 761.686 371.464 761.763 370.68 761.743L364.267 761.951C358.854 762.076 351.38 762.159 343.135 762.201H331.476C329.731 762.226 327.994 761.966 326.333 761.43C324.85 760.907 323.554 759.958 322.607 758.703C322.209 758.184 321.919 757.59 321.754 756.957C321.59 756.324 321.554 755.665 321.649 755.018C321.805 754.052 322.256 753.157 322.94 752.457C323.195 752.157 323.515 751.918 323.875 751.759C324.236 751.601 324.628 751.526 325.022 751.541C324.31 751.788 323.667 752.202 323.148 752.748C322.48 753.508 322.112 754.485 322.112 755.497C322.112 756.508 322.48 757.485 323.148 758.245C324.03 759.334 325.209 760.144 326.542 760.577C328.123 761.039 329.767 761.25 331.413 761.201H343.052C351.38 761.201 358.771 761.201 364.184 761.201L370.597 761.326C371.406 761.282 372.219 761.345 373.012 761.514Z" fill="#EB996E"/>
<path d="M366.725 771.799C365.764 772.072 364.782 772.26 363.789 772.361C361.873 772.673 359.104 773.069 355.669 773.402C351.622 773.808 347.55 773.898 343.489 773.672C338.529 773.269 333.612 772.447 328.79 771.216C320.086 769.092 311.163 767.994 302.203 767.947C298.768 767.947 295.957 768.072 294.063 768.176C293.058 768.263 292.048 768.263 291.044 768.176C292.017 767.912 293.015 767.745 294.021 767.676C296.73 767.342 299.454 767.147 302.182 767.093C311.22 766.906 320.243 767.907 329.019 770.071C333.805 771.29 338.677 772.139 343.593 772.611C347.607 772.885 351.635 772.885 355.648 772.611C359.084 772.382 361.894 772.09 363.768 771.924C364.747 771.783 365.737 771.741 366.725 771.799V771.799Z" fill="#EB996E"/>
<path d="M356.543 782.792C355.792 783.021 355.016 783.161 354.232 783.208C352.754 783.416 350.589 783.687 347.986 783.916C340.992 784.65 333.931 784.419 327 783.229C318.776 781.667 312.426 777.462 307.491 775.526C304.83 774.444 302.078 773.601 299.267 773.006C300.046 772.91 300.835 772.952 301.599 773.131C303.739 773.452 305.835 774.018 307.845 774.818C312.946 776.629 319.296 780.647 327.291 782.167C334.167 783.329 341.157 783.657 348.111 783.146L354.357 782.792C355.084 782.711 355.817 782.711 356.543 782.792V782.792Z" fill="#EB996E"/>
<g opacity="0.2">
<path opacity="0.2" d="M328.852 726.89C329.653 719.256 331.707 711.807 334.932 704.842C338.194 697.879 343.721 692.227 350.609 688.81C354.07 687.156 357.894 686.411 361.723 686.644C365.551 686.877 369.257 688.081 372.491 690.143C374.444 691.402 375.969 693.224 376.863 695.368C377.3 696.437 377.432 697.606 377.245 698.746C377.057 699.885 376.558 700.95 375.801 701.823C373.511 704.279 369.555 703.905 366.266 703.738C358.588 703.528 351.011 705.522 344.432 709.485C337.853 713.448 332.547 719.214 329.144 726.099" fill="black"/>
</g>
<g opacity="0.2">
<path opacity="0.2" d="M148.051 720.561C156.379 705.633 153.381 686.915 147.031 671.092C140.681 655.269 131.207 640.695 126.356 624.33C125.443 657.526 130.268 690.63 140.618 722.185" fill="black"/>
</g>
<path d="M162.709 492.227C162.709 492.227 172.807 516.025 209.242 514.505C245.677 512.985 246.843 484.732 246.843 484.732L271.223 510.653L248.071 558.352L216.966 581.566L174.597 564.16L139.682 537.094L162.709 492.227Z" fill="#FF725E"/>
<g opacity="0.5">
<path opacity="0.5" d="M77.388 593.954C77.7627 594.412 73.0158 598.868 66.7489 603.885C60.4821 608.903 55.1313 612.588 54.7566 612.109C54.3818 611.63 59.1288 607.216 65.3748 602.199C71.6208 597.181 77.0132 593.475 77.388 593.954Z" fill="#FAFAFA"/>
</g>
<path d="M94.523 568.283C94.3356 568.824 88.5893 567.2 82.3641 563.349C76.1389 559.497 72.079 555.145 72.4745 554.729C72.8701 554.313 77.4505 557.831 83.4883 561.516C89.5262 565.202 94.6895 567.7 94.523 568.283Z" fill="#FAFAFA"/>
<path d="M125.753 571.073C126.253 571.448 121.589 578.131 116.405 586.625C111.221 595.12 107.203 602.199 106.661 601.928C106.12 601.657 109.222 594.079 114.573 585.48C119.924 576.882 125.316 570.698 125.753 571.073Z" fill="#FAFAFA"/>
<path d="M99.0201 643.422C98.6037 643.797 93.7943 638.884 89.5886 631.618C85.383 624.351 83.4675 617.751 84.0089 617.564C84.5502 617.377 87.3193 623.456 91.4624 630.514C95.6056 637.572 99.499 643.006 99.0201 643.422Z" fill="#FAFAFA"/>
<path d="M71.0796 678.421C70.4966 678.421 69.2682 673.216 68.373 666.595C67.4777 659.974 67.2279 654.54 67.8108 654.457C68.3938 654.374 69.6222 659.683 70.5174 666.304C71.4127 672.924 71.6209 678.338 71.0796 678.421Z" fill="#FAFAFA"/>
<g opacity="0.5">
<path opacity="0.5" d="M97.3961 687.956C96.8756 687.665 99.4781 682.085 103.371 675.464C107.265 668.844 110.7 663.784 111.221 664.076C111.741 664.367 109.139 669.968 105.245 676.568C101.352 683.168 97.9166 688.185 97.3961 687.956Z" fill="#FAFAFA"/>
</g>
<path d="M66.8324 724.204C66.3951 724.6 61.7523 720.04 57.2343 713.461C52.7164 706.882 50.1555 700.969 50.6552 700.657C51.1549 700.344 54.5902 705.778 58.9832 712.233C63.3762 718.687 67.2904 723.809 66.8324 724.204Z" fill="#FAFAFA"/>
<path d="M108.368 718.229C108.785 718.645 103.996 724.163 97.6877 730.533C91.3792 736.904 85.9035 741.755 85.4663 741.339C85.0291 740.923 89.8177 735.405 96.147 729.014C102.476 722.622 107.931 717.812 108.368 718.229Z" fill="#FAFAFA"/>
<g opacity="0.5">
<path opacity="0.5" d="M84.7583 793.035C84.3627 793.452 79.7407 789.621 75.535 783.583C71.3294 777.545 69.289 771.924 69.7887 771.695C70.2884 771.466 73.224 776.525 77.3255 782.334C81.4271 788.142 85.1955 792.598 84.7583 793.035Z" fill="#FAFAFA"/>
</g>
<path d="M138.349 777.899C138.641 778.42 133.519 781.896 126.919 785.665C120.319 789.433 114.698 792.077 114.427 791.557C114.156 791.036 119.257 787.56 125.857 783.791C132.457 780.023 138.058 777.379 138.349 777.899Z" fill="#FAFAFA"/>
<path d="M159.231 760.66C158.857 761.097 154.006 757.391 149.592 751.333C145.178 745.274 143.117 739.528 143.658 739.319C144.199 739.111 147.073 744.233 151.341 750.063C155.609 755.892 159.669 760.202 159.231 760.66Z" fill="#FAFAFA"/>
<path d="M196.062 640.757C196.437 641.236 190.919 645.983 183.757 651.334C176.595 656.685 170.516 660.641 170.141 660.162C169.766 659.683 175.304 654.957 182.466 649.606C189.629 644.255 195.708 640.299 196.062 640.757Z" fill="#FAFAFA"/>
<path d="M157.254 638.217C156.65 638.217 156.754 632.45 157.462 625.476C158.17 618.501 159.232 612.984 159.835 612.984C160.439 612.984 160.335 618.751 159.627 625.725C158.919 632.7 157.837 638.322 157.254 638.217Z" fill="#FAFAFA"/>
<g opacity="0.5">
<path opacity="0.5" d="M193.044 589.478C192.71 589.957 186.256 585.98 179.177 579.921C172.099 573.863 167.143 568.137 167.56 567.742C167.976 567.346 173.577 572.301 180.593 578.276C187.609 584.252 193.397 588.978 193.044 589.478Z" fill="#FAFAFA"/>
</g>
<path d="M166.165 528.641C166.623 529.037 162.001 535.158 156.004 542.32C150.008 549.482 144.637 554.958 144.179 554.583C143.721 554.208 148.343 548.067 154.339 540.905C160.335 533.742 165.707 528.267 166.165 528.641Z" fill="#FAFAFA"/>
<g opacity="0.5">
<path opacity="0.5" d="M135.372 522.125C135.038 522.666 130.396 520.272 124.337 518.252C118.278 516.233 113.261 515.254 113.261 514.63C113.261 514.005 118.757 514.047 125.086 516.191C131.416 518.336 135.684 521.625 135.372 522.125Z" fill="#FAFAFA"/>
</g>
<path d="M213.634 550.169C213.072 550.003 214.051 544.944 215.841 538.864C217.632 532.785 219.547 527.996 220.005 528.163C220.463 528.329 219.61 533.389 217.923 539.468C216.237 545.547 214.217 550.357 213.634 550.169Z" fill="#FAFAFA"/>
<path d="M232.351 598.097C231.748 598.097 231.539 593.1 231.893 587.021C232.247 580.941 233.018 576.049 233.601 576.07C234.184 576.09 234.413 581.066 234.059 587.146C233.705 593.225 232.934 598.139 232.351 598.097Z" fill="#FAFAFA"/>
<path d="M263.165 634.053C262.79 634.532 258.231 631.492 252.984 627.266C247.737 623.04 243.782 619.25 244.156 618.792C244.531 618.334 249.091 621.353 254.337 625.58C259.584 629.806 263.477 633.595 263.165 634.053Z" fill="#FAFAFA"/>
<path d="M295.873 583.856C296.269 584.294 292.209 588.541 286.796 593.309C281.383 598.076 276.677 601.637 276.386 601.137C276.094 600.637 280.05 596.452 285.463 591.685C290.876 586.917 295.478 583.398 295.873 583.856Z" fill="#FAFAFA"/>
<g opacity="0.5">
<path opacity="0.5" d="M280.821 560.142C280.488 560.642 275.345 557.81 269.807 553.209C264.269 548.608 260.521 544.069 260.938 543.674C261.354 543.278 265.726 547.026 271.181 551.523C276.636 556.02 281.154 559.643 280.821 560.142Z" fill="#FAFAFA"/>
</g>
<path d="M318.671 517.878C319.15 518.211 316.589 522.52 312.175 526.684C307.761 530.848 303.285 533.139 302.973 532.639C302.661 532.139 306.408 529.141 310.676 525.123C314.944 521.105 318.171 517.461 318.671 517.878Z" fill="#FAFAFA"/>
<g opacity="0.5">
<path opacity="0.5" d="M292.646 513.922C292.646 514.505 285.921 514.026 278.072 512.006C270.223 509.987 264.06 507.28 264.268 506.718C264.477 506.156 270.785 507.946 278.613 509.904C286.442 511.861 292.729 513.297 292.646 513.922Z" fill="#FAFAFA"/>
</g>
<g opacity="0.5">
<path opacity="0.5" d="M340.991 581.212C340.429 581.087 341.719 572.884 344.697 563.265C347.674 553.646 351.109 546.109 351.651 546.318C352.192 546.526 349.694 554.292 346.779 563.89C343.864 573.488 341.595 581.337 340.991 581.212Z" fill="#FAFAFA"/>
</g>
<path d="M351.713 627.141C351.276 627.537 346.133 622.811 340.22 616.544C334.307 610.277 329.81 604.885 330.331 604.468C330.851 604.052 335.89 608.799 341.802 615.066C347.715 621.332 352.15 626.725 351.713 627.141Z" fill="#FAFAFA"/>
<g opacity="0.5">
<path opacity="0.5" d="M368.306 653.145C367.703 653.145 367.328 646.316 367.474 637.905C367.619 629.494 368.223 622.706 368.827 622.706C369.431 622.706 369.785 629.535 369.639 637.947C369.493 646.358 368.889 653.166 368.306 653.145Z" fill="#FAFAFA"/>
</g>
<path d="M351.463 695.993C350.984 696.326 346.528 690.871 342.406 683.251C338.284 675.631 336.16 668.906 336.681 668.677C337.201 668.448 340.241 674.715 344.321 682.189C348.402 689.664 351.962 695.639 351.463 695.993Z" fill="#FAFAFA"/>
<path d="M394.456 703.821C394.893 704.238 391.999 707.736 388.023 711.629C384.046 715.522 380.465 718.312 380.049 717.875C379.632 717.438 382.526 713.94 386.503 710.047C390.479 706.153 394.04 703.384 394.456 703.821Z" fill="#FAFAFA"/>
<g opacity="0.5">
<path opacity="0.5" d="M289.773 654.998C289.232 654.832 291.147 648.003 296.019 640.882C300.891 633.762 306.616 629.535 306.97 629.993C307.324 630.451 302.515 635.24 297.809 642.132C293.104 649.023 290.356 655.227 289.773 654.998Z" fill="#FAFAFA"/>
</g>
<path d="M168.372 712.108C167.789 711.962 168.809 705.862 170.641 698.283C172.474 690.705 174.472 684.813 175.055 684.958C175.638 685.104 174.597 691.308 172.765 698.804C170.933 706.299 168.934 712.253 168.372 712.108Z" fill="#FAFAFA"/>
<path d="M219.443 717.209C219.11 717.708 213.926 714.898 207.867 710.963C201.809 707.028 197.145 703.405 197.457 702.905C197.77 702.406 202.954 705.195 209.033 709.151C215.113 713.107 219.839 716.709 219.443 717.209Z" fill="#FAFAFA"/>
<path d="M216.945 680.316C216.445 680.649 214.009 677.88 211.49 674.07C208.971 670.259 207.326 667.012 207.846 666.678C208.367 666.345 210.782 669.114 213.301 672.924C215.821 676.735 217.361 679.982 216.945 680.316Z" fill="#FAFAFA"/>
<path d="M239.493 688.727C239.826 689.206 237.64 691.329 234.601 693.474C231.561 695.618 228.813 696.951 228.459 696.472C228.105 695.993 230.312 693.849 233.351 691.704C236.391 689.56 239.139 688.186 239.493 688.727Z" fill="#FAFAFA"/>
<g opacity="0.5">
<path opacity="0.5" d="M180.614 838.402C180.01 838.215 180.988 833.489 181.842 827.659C182.696 821.829 183.175 817.02 183.799 817.02C184.424 817.02 184.882 821.954 183.987 827.971C183.091 833.988 181.155 838.589 180.614 838.402Z" fill="#FAFAFA"/>
</g>
<g opacity="0.5">
<path opacity="0.5" d="M232.497 821.434C231.977 821.725 228.021 815.75 223.669 808.109C219.318 800.468 216.195 793.993 216.716 793.701C217.236 793.41 221.192 799.364 225.543 807.026C229.895 814.688 233.018 821.205 232.497 821.434Z" fill="#FAFAFA"/>
</g>
<g opacity="0.5">
<path opacity="0.5" d="M287.524 798.303C288.003 798.657 282.798 806.277 275.886 815.313C268.974 824.348 262.977 831.365 262.498 831.011C262.02 830.657 267.245 823.037 274.158 814.001C281.07 804.965 287.066 797.928 287.524 798.303Z" fill="#FAFAFA"/>
</g>
<g opacity="0.5">
<path opacity="0.5" d="M303.036 842.504C303.036 843.086 296.228 844.586 287.65 845.814C279.072 847.042 272.035 847.584 271.951 847.001C271.868 846.418 278.739 844.919 287.337 843.669C295.936 842.42 302.952 841.9 303.036 842.504Z" fill="#FAFAFA"/>
</g>
<path d="M305.43 820.226C304.826 820.08 305.43 815.646 305.576 810.191C305.721 804.736 305.576 800.26 306.304 800.177C307.033 800.093 308.012 804.59 307.741 810.274C307.47 815.958 305.992 820.372 305.43 820.226Z" fill="#FAFAFA"/>
<path d="M231.123 846.168C230.915 846.688 225.273 844.835 219.401 840.588C213.53 836.341 209.949 831.636 210.386 831.282C210.824 830.928 214.988 834.779 220.671 838.818C226.355 842.858 231.373 845.585 231.123 846.168Z" fill="#FAFAFA"/>
<path d="M142.825 842.878C142.242 842.732 142.825 837.965 144.366 832.26C145.907 826.555 147.447 822.016 148.03 822.162C148.613 822.308 147.905 827.055 146.469 832.78C145.032 838.506 143.408 843.024 142.825 842.878Z" fill="#FAFAFA"/>
<path d="M133.227 316.256C133.352 316.09 135.726 318.13 140.077 320.42C142.634 321.799 145.301 322.962 148.051 323.897C151.441 324.992 154.927 325.765 158.461 326.208C161.996 326.584 165.559 326.619 169.1 326.312C172.002 326.047 174.873 325.517 177.678 324.73C182.467 323.398 185.215 321.961 185.319 322.148C184.734 322.59 184.098 322.961 183.425 323.252C182.671 323.656 181.892 324.011 181.093 324.314C180.045 324.758 178.975 325.147 177.886 325.48C175.06 326.374 172.152 326.988 169.205 327.312C165.592 327.686 161.949 327.686 158.336 327.312C154.735 326.865 151.19 326.042 147.76 324.855C144.966 323.87 142.274 322.615 139.723 321.107C138.62 320.504 137.641 319.817 136.871 319.254C136.142 318.774 135.447 318.245 134.789 317.672C133.748 316.839 133.165 316.319 133.227 316.256Z" fill="#455A64"/>
<path d="M187.006 340.22C186.277 340.533 185.516 340.763 184.736 340.907C183.258 341.282 181.114 341.782 178.49 342.24C171.454 343.615 164.222 343.658 157.17 342.365C150.06 340.99 143.592 337.335 138.745 331.955C137.325 330.297 136.147 328.446 135.247 326.458C134.88 325.753 134.627 324.994 134.497 324.21C135.816 326.807 137.437 329.239 139.328 331.455C144.18 336.554 150.494 340.024 157.399 341.386C164.334 342.632 171.43 342.695 178.386 341.573C181.072 341.199 183.237 340.824 184.632 340.574C185.407 340.364 186.203 340.245 187.006 340.22V340.22Z" fill="#455A64"/>
<path d="M112.865 467.639C112.766 467.551 112.675 467.453 112.595 467.347C112.449 467.139 112.178 466.848 111.887 466.41C111.08 465.139 110.522 463.726 110.242 462.246C109.824 459.491 110.016 456.678 110.804 454.005C111.592 451.333 112.956 448.865 114.802 446.777C117.339 443.919 120.278 441.443 123.525 439.428C126.94 437.179 130.771 435.118 134.539 432.578C138.531 430.052 141.944 426.71 144.553 422.772C145.858 420.681 146.709 418.341 147.052 415.901C147.376 413.372 147.242 410.804 146.656 408.323C145.289 403.407 143.528 398.61 141.389 393.977C139.363 389.556 138.17 384.799 137.87 379.945C137.623 371.676 140.135 363.559 145.011 356.876C148.179 352.343 152.384 348.631 157.274 346.05L159.606 344.925L161.397 344.301C161.882 344.11 162.384 343.964 162.896 343.864C162.443 344.118 161.969 344.334 161.48 344.509L159.752 345.238L157.483 346.425C152.754 349.101 148.701 352.826 145.636 357.313C140.973 363.902 138.596 371.836 138.87 379.903C139.188 384.632 140.373 389.262 142.367 393.561C144.548 398.264 146.338 403.138 147.718 408.135C148.316 410.742 148.45 413.435 148.114 416.088C147.757 418.677 146.856 421.161 145.47 423.375C142.755 427.436 139.206 430.871 135.059 433.452C131.229 435.992 127.377 438.033 123.983 440.24C120.783 442.171 117.88 444.555 115.364 447.318C113.558 449.319 112.201 451.682 111.382 454.249C110.564 456.816 110.303 459.529 110.617 462.205C110.995 464.148 111.76 465.996 112.865 467.639V467.639Z" fill="#455A64"/>
<path d="M168.33 468.388C167.902 468.207 167.497 467.976 167.122 467.701C166.038 466.922 165.124 465.93 164.436 464.786C163.364 462.956 162.723 460.905 162.562 458.79C162.341 455.981 162.652 453.156 163.479 450.462C165.165 444.362 170.266 438.803 174.097 431.724C176.183 428.119 177.268 424.022 177.241 419.857C177.028 415.388 175.886 411.013 173.889 407.011C169.933 398.683 163.853 391.979 159.648 385.025C157.581 381.774 155.931 378.276 154.734 374.615C153.726 371.372 153.379 367.959 153.714 364.58C154.036 359.633 156.206 354.988 159.793 351.567C160.797 350.715 161.919 350.014 163.125 349.485C163.537 349.286 163.97 349.132 164.415 349.027C162.844 349.805 161.381 350.785 160.064 351.942C156.721 355.381 154.739 359.915 154.484 364.705C154.207 367.981 154.589 371.28 155.609 374.407C156.796 378.009 158.44 381.445 160.501 384.629C162.583 388.023 165.165 391.417 167.726 395.039C170.459 398.706 172.849 402.616 174.867 406.719C176.949 410.858 178.121 415.394 178.302 420.023C178.31 424.359 177.167 428.619 174.992 432.37C170.995 439.469 165.894 444.862 164.207 450.775C163.38 453.362 163.028 456.077 163.166 458.79C163.28 460.828 163.834 462.817 164.79 464.62C165.691 466.111 166.898 467.396 168.33 468.388V468.388Z" fill="#455A64"/>
<path d="M250.486 312.092C250.486 312.092 250.194 312.092 249.694 311.759C248.973 311.368 248.277 310.93 247.612 310.448C245.23 308.602 243.205 306.337 241.637 303.764C239.36 299.962 237.429 295.962 235.87 291.814C234.912 289.523 233.788 287.129 232.622 284.776C231.317 282.346 229.784 280.045 228.042 277.906C221.826 270.36 213.413 264.938 203.974 262.395C200.046 261.449 196.038 260.877 192.002 260.688C193.082 260.507 194.178 260.444 195.271 260.5C198.266 260.576 201.245 260.96 204.161 261.645C213.866 264.028 222.537 269.493 228.874 277.219C230.672 279.415 232.255 281.778 233.601 284.277C234.871 286.692 235.87 289.128 236.807 291.439C238.319 295.555 240.157 299.545 242.303 303.369C243.794 305.905 245.686 308.183 247.904 310.114C249.507 311.468 250.548 312.009 250.486 312.092Z" fill="#455A64"/>
<path d="M279.53 311.926C279.151 311.94 278.772 311.898 278.405 311.801C277.34 311.635 276.293 311.363 275.282 310.989C271.538 309.603 268.146 307.406 265.351 304.555C261.244 300.338 257.779 295.539 255.066 290.314C251.797 284.589 248.633 278.01 243.74 272.284C239.077 266.933 232.922 263.098 226.064 261.271C220.458 259.782 214.687 259.005 208.887 258.96C203.911 258.855 199.893 258.96 197.103 259.168L193.897 259.293C193.524 259.343 193.145 259.343 192.772 259.293C193.13 259.178 193.501 259.115 193.876 259.105L197.082 258.772C199.851 258.543 203.89 258.21 208.887 258.231C214.769 258.152 220.636 258.852 226.334 260.313C233.41 262.141 239.763 266.077 244.552 271.597C249.59 277.489 252.734 284.089 255.92 289.856C258.56 295.022 261.917 299.789 265.892 304.014C268.572 306.859 271.821 309.108 275.428 310.614C278.01 311.613 279.55 311.801 279.53 311.926Z" fill="#455A64"/>
<path d="M328.686 447.048C328.582 447.048 329.227 445.57 329.914 442.884C330.913 439.054 331.334 435.096 331.164 431.141C330.966 425.275 329.457 419.527 326.75 414.319C325.136 411.264 323.134 408.43 320.795 405.887C318.38 403.201 315.611 400.661 312.842 397.996C310.046 395.433 307.463 392.648 305.118 389.668C302.963 386.874 301.101 383.867 299.559 380.694C296.965 375.308 295.304 369.522 294.645 363.58C294.187 359.586 294.229 355.551 294.77 351.567C294.889 350.487 295.077 349.416 295.332 348.361C295.387 347.981 295.492 347.61 295.645 347.257C295.749 347.257 295.416 348.819 295.187 351.63C294.809 355.574 294.878 359.548 295.395 363.476C296.174 369.304 297.882 374.97 300.454 380.257C301.992 383.353 303.833 386.289 305.951 389.022C308.28 391.926 310.827 394.647 313.571 397.163C316.361 399.828 319.13 402.389 321.586 405.137C323.972 407.753 326.003 410.672 327.624 413.819C330.357 419.169 331.831 425.072 331.934 431.079C332.034 435.101 331.493 439.114 330.331 442.967C330.028 444.015 329.645 445.038 329.186 446.028C329.072 446.391 328.903 446.735 328.686 447.048Z" fill="#455A64"/>
<path d="M100.602 310.281C100.597 309.578 100.688 308.877 100.873 308.199C101.294 306.389 101.959 304.645 102.851 303.015C104.339 300.248 106.395 297.828 108.885 295.912C111.375 293.997 114.241 292.63 117.297 291.9C120.352 291.171 123.527 291.096 126.614 291.68C129.7 292.264 132.628 293.495 135.205 295.29C136.765 296.326 138.167 297.582 139.369 299.017C139.85 299.518 140.244 300.095 140.535 300.725C138.775 298.943 136.843 297.339 134.768 295.936C132.25 294.297 129.424 293.189 126.463 292.678C123.503 292.167 120.469 292.264 117.547 292.963C114.625 293.662 111.876 294.949 109.468 296.745C107.059 298.541 105.042 300.809 103.538 303.41C102.34 305.6 101.357 307.901 100.602 310.281Z" fill="#455A64"/>
<path d="M120.777 319.046C120.762 317.452 120.958 315.863 121.36 314.32C122 310.457 123.71 306.851 126.294 303.91C127.71 302.492 129.484 301.484 131.427 300.993C133.369 300.501 135.409 300.545 137.329 301.12C138.483 301.538 139.503 302.257 140.285 303.202C140.806 303.868 140.952 304.326 140.91 304.347C139.849 303.247 138.544 302.413 137.1 301.911C135.324 301.488 133.47 301.527 131.714 302.022C129.958 302.518 128.357 303.454 127.065 304.743C124.626 307.567 122.924 310.95 122.109 314.591C121.802 316.113 121.356 317.605 120.777 319.046V319.046Z" fill="#455A64"/>
<path d="M147.239 288.545C145.151 292.195 143.321 295.986 141.763 299.892C140.559 303.915 139.613 308.011 138.932 312.155C138.471 303.492 141.467 295.001 147.26 288.545H147.239Z" fill="#FF725E"/>
<path d="M480.318 339.304C480.318 340.585 480.697 341.837 481.409 342.902C482.12 343.966 483.132 344.796 484.315 345.286C485.498 345.776 486.8 345.905 488.056 345.655C489.312 345.405 490.466 344.788 491.371 343.883C492.277 342.977 492.893 341.823 493.143 340.567C493.393 339.311 493.265 338.009 492.775 336.826C492.285 335.643 491.455 334.632 490.39 333.92C489.325 333.209 488.073 332.829 486.793 332.829C485.942 332.829 485.1 332.997 484.315 333.322C483.529 333.647 482.815 334.124 482.214 334.726C481.613 335.327 481.136 336.041 480.811 336.826C480.485 337.612 480.318 338.454 480.318 339.304V339.304Z" fill="#455A64"/>
<path d="M460.851 345.779C464.427 345.779 467.326 342.88 467.326 339.304C467.326 335.728 464.427 332.829 460.851 332.829C457.275 332.829 454.376 335.728 454.376 339.304C454.376 342.88 457.275 345.779 460.851 345.779Z" fill="#455A64"/>
<path d="M428.518 336.056C427.878 337.166 427.582 338.44 427.667 339.717C427.751 340.995 428.213 342.219 428.993 343.234C429.773 344.249 430.836 345.011 432.049 345.422C433.261 345.833 434.569 345.875 435.805 345.544C437.042 345.212 438.152 344.521 438.997 343.558C439.841 342.596 440.38 341.404 440.547 340.135C440.714 338.865 440.501 337.575 439.935 336.426C439.369 335.278 438.475 334.323 437.366 333.683C436.63 333.257 435.816 332.981 434.973 332.87C434.129 332.759 433.272 332.815 432.45 333.036C431.628 333.256 430.858 333.636 430.183 334.155C429.509 334.673 428.943 335.319 428.518 336.056V336.056Z" fill="#455A64"/>
<path d="M460.456 263.623C460.02 263.573 459.58 263.573 459.144 263.623L455.292 263.728C454.459 263.728 453.502 263.727 452.461 263.852L449.067 264.331L445.111 264.893L440.677 265.997C433.096 267.923 425.881 271.073 419.315 275.324C409.557 281.534 401.35 289.893 395.32 299.763C389.289 309.633 385.597 320.751 384.525 332.267C384.224 335.729 384.154 339.206 384.317 342.677C384.442 344.447 384.317 346.217 384.65 347.986L385.462 353.337C386.82 360.695 389.247 367.814 392.666 374.469C396.333 381.421 400.982 387.809 406.469 393.436C412.319 399.196 419.026 404.014 426.352 407.719C433.919 411.586 442.109 414.088 450.545 415.11C452.69 415.433 454.852 415.621 457.02 415.672C459.191 415.787 461.366 415.787 463.537 415.672C467.941 415.496 472.322 414.946 476.633 414.027C485.883 412.048 494.686 408.37 502.595 403.18H501.804L528.329 413.84L529.911 414.465L529.453 412.841C526.788 403.097 524.165 393.624 521.667 384.463L521.521 385.171C528.728 375.631 533.579 364.524 535.679 352.754C536.697 347.264 537.046 341.672 536.72 336.098C536.665 333.424 536.407 330.759 535.949 328.124C535.762 326.812 535.554 325.521 535.366 324.231C535.179 322.94 534.721 321.732 534.429 320.483C529.989 303.041 519.496 287.745 504.823 277.323C499.408 273.431 493.48 270.306 487.209 268.037L483.254 266.621L479.485 265.664L476.029 264.81C474.926 264.581 473.947 264.477 472.864 264.331C470.782 264.061 469.096 263.727 467.555 263.644L463.641 263.519H461.268C460.726 263.519 460.456 263.519 460.456 263.519H461.268L463.641 263.707L467.514 263.957C469.033 264.081 470.782 264.477 472.781 264.769C487.184 267.247 500.557 273.855 511.275 283.79C521.994 293.725 529.596 306.559 533.159 320.733C533.451 321.961 533.825 323.169 534.054 324.418C534.284 325.667 534.429 326.958 534.638 328.228C535.057 330.824 535.286 333.448 535.325 336.077C535.629 341.52 535.273 346.98 534.263 352.338C532.153 363.917 527.346 374.837 520.23 384.213L520.001 384.525L520.105 384.921C522.603 394.082 525.178 403.541 527.829 413.299L528.954 412.299L502.45 401.619L502.033 401.452L501.638 401.702C493.886 406.816 485.252 410.444 476.175 412.403C471.967 413.305 467.691 413.848 463.391 414.027C461.26 414.111 459.126 414.069 457 413.902C454.909 413.862 452.822 413.688 450.754 413.382C442.494 412.368 434.475 409.916 427.06 406.137C412.862 399.113 401.288 387.722 394.04 373.637C390.641 367.141 388.214 360.183 386.836 352.983C386.565 351.213 386.295 349.485 386.045 347.736C385.795 345.987 385.816 344.259 385.67 342.531C385.506 339.138 385.562 335.737 385.837 332.35C386.851 321.023 390.43 310.075 396.303 300.335C402.175 290.596 410.187 282.321 419.732 276.136C426.211 271.849 433.34 268.636 440.843 266.621L445.215 265.456L449.15 264.81L452.502 264.248C453.543 264.248 454.48 264.123 455.313 264.04L459.144 263.769C459.584 263.757 460.023 263.708 460.456 263.623V263.623Z" fill="#455A64"/>
</svg>
