<svg width="445" height="397" viewBox="0 0 445 397" fill="none" xmlns="http://www.w3.org/2000/svg">
<path d="M445 380.5C445 380.769 367.539 381 272.008 381C176.477 381 99 380.769 99 380.5C99 380.231 176.445 380 272.008 380C367.57 380 445 380.212 445 380.5Z" fill="#263238"/>
<path d="M77.8021 277.172L52.9325 315.814C52.9325 315.814 5.30189 303.521 0 310.278L73.203 361.188L114.41 302.559L77.8021 277.172Z" fill="#FF725E"/>
<path opacity="0.3" d="M77.8021 277.172L52.9325 315.814C52.9325 315.814 5.30189 303.521 0 310.278L73.203 361.188L114.41 302.559L77.8021 277.172Z" fill="black"/>
<path d="M77.7774 328.39C78.3191 329.1 78.5863 329.98 78.5297 330.871C78.473 331.761 78.0964 332.601 77.4692 333.236C76.7854 333.813 75.9071 334.108 75.0135 334.06C74.1199 334.012 73.2784 333.625 72.6605 332.977C72.0744 332.228 71.7855 331.289 71.8493 330.34C71.913 329.391 72.3248 328.5 73.0057 327.836C74.4607 326.788 77.1733 327.071 77.9377 328.662" fill="#E0E0E0"/>
<path d="M73.2153 361.126L77.3089 355.294L5.4745 308.515C5.4745 308.515 1.233 307.664 0 310.278L73.2153 361.126Z" fill="#E0E0E0"/>
<path d="M52.0077 314.618C51.7734 314.988 53.438 316.393 54.3997 318.761C55.3615 321.128 55.2505 323.286 55.6327 323.372C56.0149 323.459 56.9644 321.03 55.756 318.169C54.5477 315.308 52.1556 314.236 52.0077 314.618Z" fill="#263238"/>
<path d="M42.1192 312.448C41.7986 312.744 42.9206 314.433 43.0809 316.788C43.2412 319.143 42.4891 320.98 42.8466 321.214C43.2042 321.449 44.8564 319.587 44.5975 316.652C44.3386 313.718 42.3658 312.115 42.1192 312.448Z" fill="#263238"/>
<path d="M31.3675 318.613C31.6387 318.909 33.3773 317.478 33.8335 314.914C34.2897 312.349 33.143 310.376 32.7854 310.574C32.4278 310.771 32.7854 312.522 32.3415 314.655C31.8977 316.788 31.0346 318.329 31.3675 318.613Z" fill="#263238"/>
<path d="M58.6537 306.443C58.5674 306.875 60.5525 307.516 62.476 309.057C64.3995 310.598 65.5338 312.337 65.9407 312.152C66.3476 311.967 65.7065 309.686 63.4747 307.861C61.243 306.036 58.666 306.036 58.6537 306.443Z" fill="#263238"/>
<path d="M63.8077 298.737C63.709 298.885 64.9667 300.081 67.5067 301.265C68.9901 301.948 70.551 302.449 72.1551 302.756C73.1077 302.938 74.0717 303.054 75.0403 303.102C75.6091 303.157 76.1831 303.124 76.7418 303.003C77.1537 302.913 77.5239 302.688 77.794 302.365C78.0641 302.041 78.2188 301.637 78.2337 301.215C78.2211 300.844 78.1246 300.48 77.9517 300.152C77.7788 299.823 77.5338 299.537 77.235 299.316C76.7752 298.987 76.268 298.729 75.7308 298.552C74.8156 298.201 73.8705 297.932 72.9072 297.751C71.2813 297.44 69.6157 297.394 67.9752 297.615C65.1886 298.01 63.6844 298.934 63.7583 299.095C63.8323 299.255 65.4352 298.774 68.0738 298.675C69.6023 298.633 71.1302 298.778 72.6236 299.107C73.4935 299.314 74.3466 299.586 75.1759 299.921C76.0883 300.266 76.7541 300.71 76.7172 301.154C76.7172 301.326 76.7172 301.388 76.3473 301.499C75.942 301.583 75.5267 301.608 75.1143 301.573C74.2064 301.537 73.301 301.455 72.4017 301.326C70.8729 301.104 69.3697 300.732 67.9135 300.217C65.3489 299.403 63.9433 298.54 63.8077 298.737Z" fill="#263238"/>
<path d="M63.9185 299.575C64.0048 299.711 65.6078 298.922 67.3463 296.702C68.357 295.391 69.1329 293.914 69.6396 292.338C69.9411 291.403 70.1476 290.441 70.2561 289.465C70.3952 288.844 70.3718 288.198 70.1882 287.589C70.0046 286.98 69.667 286.428 69.2081 285.988C68.873 285.774 68.4837 285.66 68.0861 285.66C67.6884 285.66 67.2991 285.774 66.964 285.988C66.4755 286.281 66.0313 286.642 65.6447 287.06C64.9524 287.791 64.3746 288.623 63.9309 289.526C63.1716 291.057 62.803 292.751 62.8582 294.458C62.9691 297.344 64.1651 298.811 64.2884 298.712C64.4117 298.614 63.7583 297.06 63.9309 294.471C64.0309 292.984 64.4516 291.538 65.1639 290.229C65.5743 289.445 66.0931 288.723 66.7051 288.084C67.3709 287.381 68.0984 286.962 68.3327 287.233C68.5549 287.529 68.7098 287.87 68.7864 288.232C68.8631 288.594 68.8597 288.969 68.7765 289.329C68.6949 290.216 68.5382 291.095 68.308 291.955C67.8927 293.416 67.2743 294.81 66.4708 296.098C65.0776 298.305 63.7582 299.378 63.9185 299.575Z" fill="#263238"/>
<path d="M85.4837 312.842L60.6265 351.485C60.6265 351.485 12.9835 339.155 7.69397 345.887L80.897 396.797L122.067 338.168L85.4837 312.842Z" fill="#FF725E"/>
<path d="M85.459 364.061C86.0023 364.769 86.2716 365.649 86.2172 366.539C86.1628 367.43 85.7885 368.27 85.1631 368.907C84.4798 369.49 83.5982 369.789 82.7008 369.741C81.8034 369.693 80.9589 369.301 80.3421 368.648C79.1831 367.292 79.2447 364.554 80.6996 363.519C82.1546 362.483 84.8548 362.742 85.6316 364.332" fill="#E0E0E0"/>
<path d="M80.897 396.797L84.9905 390.965L13.1685 344.185C13.1685 344.185 8.92697 343.334 7.69397 345.887L80.897 396.797Z" fill="#E0E0E0"/>
<path d="M59.6893 350.289C59.455 350.658 61.1319 352.064 62.1553 354.431C63.1787 356.799 63.006 358.956 63.3883 359.043C63.7705 359.129 64.7199 356.7 63.5116 353.852C62.3032 351.004 59.8496 349.906 59.6893 350.289Z" fill="#263238"/>
<path d="M49.8008 348.131C49.4802 348.414 50.6146 350.104 50.7749 352.459C50.9352 354.814 50.1707 356.651 50.5406 356.885C50.9105 357.119 52.5381 355.257 52.2791 352.335C52.0202 349.413 50.0474 347.786 49.8008 348.131Z" fill="#263238"/>
<path d="M39.0613 354.283C39.3326 354.592 41.0711 353.149 41.5273 350.584C41.9835 348.02 40.8368 346.047 40.4793 346.244C40.1217 346.442 40.4793 348.205 40.0354 350.326C39.5915 352.446 38.7284 354 39.0613 354.283Z" fill="#263238"/>
<path d="M66.3351 342.114C66.2612 342.545 68.2463 343.186 70.1698 344.728C72.0932 346.269 73.2276 348.007 73.6221 347.835C74.0167 347.662 73.4002 345.369 71.1562 343.544C68.9121 341.719 66.3598 341.707 66.3351 342.114Z" fill="#263238"/>
<path d="M71.5138 334.408C71.4029 334.555 72.6605 335.751 75.2128 336.935C76.6978 337.626 78.2636 338.127 79.8735 338.427C80.822 338.609 81.7819 338.724 82.7464 338.772C83.3187 338.832 83.8969 338.803 84.4603 338.686C84.8708 338.596 85.2394 338.37 85.5075 338.047C85.7756 337.723 85.9277 337.318 85.9398 336.898C85.9376 336.523 85.8458 336.154 85.6721 335.822C85.4984 335.489 85.2478 335.203 84.9411 334.987C84.4828 334.655 83.9752 334.397 83.4369 334.223C80.9745 333.269 78.3125 332.947 75.6937 333.285C72.9071 333.68 71.3905 334.605 71.4645 334.765C71.5385 334.925 73.1537 334.444 75.78 334.358C77.3089 334.303 78.8384 334.449 80.3297 334.79C81.2067 334.986 82.0649 335.258 82.8944 335.604C83.8068 335.936 84.4726 336.393 84.4233 336.837C84.4233 337.021 84.4233 337.071 84.0657 337.194C83.6589 337.266 83.2447 337.287 82.8327 337.256C81.9282 337.233 81.0262 337.15 80.1324 337.009C78.6048 336.788 77.1019 336.42 75.6443 335.912C73.0797 335.073 71.6248 334.21 71.5138 334.408Z" fill="#263238"/>
<path d="M71.6124 335.246C71.6987 335.382 73.3016 334.592 75.0401 332.373C76.0416 331.056 76.8166 329.58 77.3335 328.008C77.6308 327.073 77.8332 326.111 77.9377 325.135C78.0767 324.515 78.0533 323.868 77.8697 323.259C77.6861 322.65 77.3486 322.099 76.8896 321.658C76.5546 321.444 76.1652 321.33 75.7676 321.33C75.37 321.33 74.9806 321.444 74.6456 321.658C74.1597 321.955 73.7195 322.32 73.3386 322.743C72.6404 323.472 72.0583 324.304 71.6124 325.209C70.8634 326.721 70.4992 328.394 70.552 330.08C70.663 332.977 71.859 334.432 71.97 334.334C72.0809 334.235 71.4521 332.681 71.6247 330.104C71.723 328.614 72.1437 327.163 72.8577 325.851C73.2698 325.09 73.7889 324.392 74.399 323.779C75.0525 323.076 75.7799 322.657 76.0142 322.941C76.236 323.235 76.3917 323.573 76.4704 323.933C76.5492 324.292 76.5492 324.665 76.4704 325.024C76.3848 325.912 76.2239 326.79 75.9895 327.651C75.585 329.115 74.9659 330.511 74.1524 331.794C72.7468 333.976 71.5138 335.049 71.6124 335.246Z" fill="#263238"/>
<path d="M74.991 320.672C74.991 320.672 96.3958 280.501 93.4859 284.508C85.5824 295.42 132.029 229.233 153.101 195.338C156.45 189.953 160.973 185.396 166.333 182.007C171.692 178.618 177.749 176.486 184.049 175.77C190.42 175.048 196.871 175.793 202.909 177.949C208.947 180.106 214.411 183.616 218.882 188.211L338.704 311.141L394.423 343.569C394.423 343.569 380.712 372.815 336.473 378.956C292.233 385.096 265.082 349.302 242.765 326.504C216.49 299.649 190.177 263.56 190.177 263.56L120.353 355.714C120.353 355.714 77.2227 323.298 74.991 320.672Z" fill="#263238"/>
<path d="M160.906 183.057C144.576 186.981 130.196 196.632 120.377 210.257L58.8138 294.853L88.4921 315.21L160.906 183.057Z" fill="#263238"/>
<path d="M150.623 192.65C150.623 192.65 150.623 192.773 150.401 192.971L149.673 193.821L148.44 195.215C147.972 195.757 147.503 196.448 146.936 197.2C144.63 200.184 141.671 204.758 138.058 210.442C130.944 221.872 121.623 237.963 111.549 255.866L85.7918 301.758C82.4874 307.59 79.8117 312.325 77.9253 315.641L75.7552 319.34C75.5086 319.735 75.3236 320.055 75.1757 320.302C75.0277 320.549 74.9661 320.635 74.9537 320.623C74.9414 320.61 74.9537 320.499 75.114 320.277L75.6442 319.279L77.7033 315.469L85.3972 301.487C91.9074 289.699 100.884 273.411 110.982 255.508C121.08 237.605 130.463 221.527 137.676 210.146C141.375 204.499 144.371 199.949 146.726 197.002C147.318 196.263 147.799 195.584 148.292 195.042L149.525 193.686L150.302 192.872L150.623 192.65Z" fill="#455A64"/>
<path d="M188.525 241.094C188.633 242.221 188.658 243.355 188.599 244.485C188.599 246.581 188.723 249.417 189.08 252.635C189.391 255.341 189.843 258.029 190.436 260.687C190.734 261.781 190.961 262.893 191.115 264.016C190.617 262.99 190.241 261.91 189.993 260.798C188.542 255.487 187.918 249.985 188.143 244.485C188.127 243.343 188.256 242.204 188.525 241.094Z" fill="#455A64"/>
<path d="M196.7 238.505C196.43 239.726 196.084 240.928 195.664 242.105C194.986 244.312 194.123 247.383 193.371 250.823C192.619 254.263 192.138 257.407 191.817 259.7C191.707 260.943 191.522 262.179 191.262 263.399C191.162 262.145 191.2 260.884 191.373 259.639C191.926 253.608 193.222 247.669 195.233 241.957C195.597 240.758 196.089 239.6 196.7 238.505Z" fill="#455A64"/>
<path d="M277.597 29.7588L309.655 104.663C310.947 107.683 311.612 110.935 311.611 114.22C311.609 117.505 310.939 120.755 309.643 123.774C308.347 126.792 306.452 129.516 304.071 131.78C301.691 134.044 298.876 135.8 295.796 136.943C289.958 139.094 283.517 138.921 277.803 136.459C272.089 133.997 267.54 129.434 265.094 123.713C262.69 118.078 260.668 113.381 260.384 112.813C260.384 112.813 240.545 119.188 231.088 100.903C226.514 92.0621 218.586 73.0986 211.607 55.849C207.996 46.9161 207.881 36.951 211.285 27.9373C214.69 18.9236 221.364 11.5225 229.978 7.20729L231.754 6.31953C251.457 -2.16348 269.669 9.83358 277.597 29.7588Z" fill="#FFBE9D"/>
<path d="M260.162 112.567C268.737 108.463 275.896 101.9 280.729 93.7143C280.729 93.7143 281.703 109.743 262.517 117.351L260.162 112.567Z" fill="#EB996E"/>
<path d="M222.95 67.1679C223.11 67.5229 223.338 67.8426 223.623 68.1081C223.908 68.3736 224.242 68.5795 224.607 68.7139C224.973 68.8483 225.361 68.9084 225.75 68.8906C226.139 68.8729 226.52 68.7776 226.871 68.6105C227.216 68.4703 227.53 68.2626 227.793 67.9997C228.057 67.7369 228.265 67.424 228.407 67.0796C228.548 66.7351 228.619 66.3659 228.616 65.9936C228.613 65.6214 228.535 65.2535 228.388 64.9115C228.052 64.2232 227.46 63.6936 226.739 63.4356C226.018 63.1775 225.225 63.2116 224.529 63.5305C224.186 63.6652 223.873 63.8663 223.608 64.1221C223.343 64.378 223.131 64.6836 222.984 65.0216C222.838 65.3595 222.759 65.723 222.754 66.0913C222.748 66.4596 222.815 66.8255 222.95 67.1679Z" fill="#263238"/>
<path d="M219.289 63.6785C219.782 63.8511 221.039 61.3851 223.875 59.9795C226.711 58.5739 229.485 58.9438 229.609 58.4506C229.683 58.2163 229.042 57.7725 227.809 57.5628C226.161 57.3291 224.482 57.609 223 58.3643C221.531 59.1026 220.332 60.2846 219.572 61.7427C219.03 62.8154 219.054 63.5799 219.289 63.6785Z" fill="#263238"/>
<path d="M250.631 53.7406C250.965 54.4311 251.556 54.9628 252.278 55.2212C253 55.4795 253.795 55.4437 254.491 55.1215C254.835 54.9813 255.149 54.7736 255.412 54.5108C255.676 54.2479 255.885 53.9351 256.026 53.5906C256.167 53.2462 256.238 52.877 256.235 52.5047C256.232 52.1324 256.154 51.7645 256.007 51.4225C255.674 50.7321 255.082 50.2003 254.36 49.942C253.638 49.6836 252.844 49.7194 252.148 50.0416C251.803 50.1818 251.49 50.3895 251.226 50.6524C250.962 50.9152 250.754 51.2281 250.613 51.5725C250.471 51.917 250.4 52.2862 250.403 52.6584C250.407 53.0307 250.484 53.3986 250.631 53.7406Z" fill="#263238"/>
<path d="M247.906 49.7333C248.375 49.9676 249.941 47.6866 252.937 46.6508C255.933 45.6151 258.633 46.3549 258.831 45.8741C258.929 45.6644 258.362 45.1219 257.154 44.7644C255.552 44.3158 253.85 44.3761 252.283 44.937C250.727 45.4716 249.38 46.4861 248.436 47.8345C247.832 48.8826 247.684 49.6224 247.906 49.7333Z" fill="#263238"/>
<path d="M248.399 75.6016C248.338 75.429 246.427 76.0085 243.393 77.0812C242.629 77.3648 241.877 77.5621 241.507 77.0812C241.073 76.3662 240.867 75.5364 240.915 74.7015C240.718 72.6178 240.508 70.423 240.299 68.1297C239.337 58.8205 238.252 51.2992 237.833 51.3486C237.413 51.3979 237.931 58.9685 238.893 68.2899C239.14 70.571 239.386 72.7534 239.62 74.8372C239.602 75.9401 239.973 77.0141 240.669 77.8703C240.901 78.0708 241.176 78.216 241.473 78.295C241.77 78.374 242.081 78.3848 242.382 78.3265C242.835 78.2334 243.274 78.0843 243.689 77.8827C246.686 76.6497 248.473 75.7619 248.399 75.6016Z" fill="#263238"/>
<path d="M258.781 38.6857C258.337 37.8843 255.292 38.809 251.556 38.9693C247.82 39.1296 244.688 38.6118 244.331 39.4502C244.17 39.8571 244.824 40.5722 246.155 41.1887C247.913 41.9384 249.819 42.2759 251.728 42.1755C253.636 42.075 255.497 41.5393 257.166 40.6092C258.424 39.8447 258.991 39.0186 258.781 38.6857Z" fill="#263238"/>
<path d="M223.468 53.346C222.618 53.0501 221.212 54.8749 219.042 56.3545C216.872 57.8341 214.739 58.6232 214.726 59.5356C214.726 59.9671 215.429 60.374 216.613 60.3987C218.145 60.3681 219.633 59.883 220.889 59.0048C222.145 58.1267 223.111 56.8952 223.666 55.4667C224.023 54.2831 223.875 53.5063 223.468 53.346Z" fill="#263238"/>
<path d="M282.936 44.1355C283.182 43.8396 293.7 34.0496 299.606 46.8358C305.512 59.622 291.468 62.8648 291.283 62.5565C291.098 62.2483 282.936 44.1355 282.936 44.1355Z" fill="#FFBE9D"/>
<path d="M292.948 55.9107C292.948 55.8367 293.244 55.9107 293.7 55.9107C294.333 55.8887 294.934 55.6237 295.377 55.1709C296.499 54.0488 296.61 51.3856 295.636 49.0059C295.164 47.8947 294.447 46.9043 293.54 46.1083C293.237 45.7615 292.854 45.4945 292.424 45.3311C291.994 45.1676 291.53 45.1127 291.074 45.1713C290.784 45.2212 290.522 45.3728 290.334 45.5989C290.147 45.8249 290.046 46.1105 290.05 46.4043C290.05 46.8358 290.235 47.0577 290.186 47.1071C290.137 47.1564 289.804 47.0208 289.668 46.4413C289.591 46.0908 289.639 45.7245 289.804 45.4055C290.033 44.982 290.417 44.6638 290.876 44.5178C291.449 44.3775 292.047 44.3866 292.615 44.5442C293.183 44.7018 293.701 45.0026 294.119 45.4179C295.191 46.2685 296.038 47.3693 296.585 48.6236C297.695 51.2376 297.498 54.2585 295.895 55.6517C295.598 55.9114 295.247 56.1006 294.866 56.2053C294.486 56.3099 294.088 56.3272 293.7 56.2559C293.108 56.2066 292.911 55.9476 292.948 55.9107Z" fill="#EB996E"/>
<path d="M289.754 40.2516C287.609 40.7448 285.18 44.1848 285.254 46.4166C285.328 48.6483 286.178 50.7444 286.265 52.9514C286.351 55.1585 285.328 57.7108 283.182 58.2163C282.427 58.3389 281.653 58.2597 280.939 57.9869C280.224 57.7141 279.595 57.2573 279.113 56.6628C278.169 55.465 277.466 54.0958 277.042 52.6309C274.835 46.3796 273.146 39.931 270.421 33.9017C267.696 27.8723 263.763 22.1389 258.091 18.6618C252.419 15.1848 244.885 14.334 239.226 17.7741C235.527 20.0428 232.913 23.8774 229.3 26.405C227.141 27.8695 224.676 28.8228 222.093 29.1924C219.51 29.562 216.877 29.3382 214.393 28.5381C214.221 28.5381 213.925 28.4271 213.555 28.3655C212.737 28.2357 211.983 27.8409 211.411 27.2418C210.839 26.6426 210.479 25.8722 210.386 25.0487C210.308 24.5193 210.355 23.979 210.522 23.4705C214.652 12.4845 227.537 3.52061 238.992 0.980641C250.446 -1.55933 263.652 0.832696 272.763 8.18135C281.875 15.53 287.288 29.3396 289.754 40.2516Z" fill="#263238"/>
<path d="M258.831 79.1033C258.831 79.2882 258.14 79.2882 257.178 79.4485C255.952 79.66 254.789 80.1446 253.775 80.8665C252.746 81.5895 251.863 82.5016 251.174 83.5544C250.619 84.3682 250.36 84.96 250.175 84.9107C249.99 84.8614 249.965 84.1832 250.36 83.1475C250.903 81.7944 251.834 80.6319 253.036 79.8061C254.229 78.9596 255.667 78.5266 257.129 78.5731C258.251 78.6101 258.855 78.943 258.831 79.1033Z" fill="#263238"/>
<path d="M261.075 51.8417C260.949 52.9552 260.424 53.9854 259.596 54.7406C258.768 55.4958 257.694 55.9247 256.574 55.9476C257.475 55.4454 258.341 54.8809 259.163 54.2584C260.421 53.1364 260.89 51.7801 261.075 51.8417Z" fill="#EB996E"/>
<path d="M158.551 74.6152L178.008 39.0186L194.037 26.0968L214.726 28.945C214.726 28.945 220.67 35.7141 218.425 39.0679C216.181 42.4216 214.061 50.843 211.73 47.7728C209.4 44.7027 208.919 38.2171 208.919 38.2171L203.457 37.9212V47.5632L214.455 50.9046C214.455 50.9046 225.33 41.8545 226.428 43.8396C227.525 45.8247 226.563 49.499 220.337 54.7639C214.11 60.0288 206.589 68.1543 206.589 68.1543L196.799 70.4723L188.007 84.5038L158.551 74.6152Z" fill="#FFBE9D"/>
<path d="M268.473 120.396L166.307 151.456L190.227 83.2585L157.824 73.0493L120.895 148.755C109.798 174.956 112.782 186.534 123.139 197.903C131.462 207.039 153.323 202.576 165.468 200.368L254.848 186.436L268.473 120.396Z" fill="#FF725E"/>
<path opacity="0.4" d="M268.473 120.396L166.307 151.456L190.227 83.2585L157.824 73.0493L120.895 148.755C109.798 174.956 112.782 186.534 123.139 197.903C131.462 207.039 153.323 202.576 165.468 200.368L254.54 186.485L268.473 120.396Z" fill="black"/>
<path d="M147.565 113.763C146.035 113.915 144.492 113.857 142.978 113.59C141.436 113.528 139.909 113.254 138.441 112.776C139.973 112.641 141.516 112.716 143.028 112.998C144.569 113.036 146.097 113.293 147.565 113.763Z" fill="#FAFAFA"/>
<path d="M149.192 110.162C146.32 109.78 143.519 108.973 140.882 107.77C142.332 107.853 143.762 108.152 145.124 108.658C146.548 108.951 147.92 109.458 149.192 110.162Z" fill="#FAFAFA"/>
<path d="M249.324 177.792C249.324 177.792 290.531 244.251 290.26 254.164C289.988 264.077 309.309 285.704 317.842 294.236C326.374 302.769 375.657 343.556 394.423 343.556C394.423 343.556 418.627 308.687 416.913 288.219C415.199 267.752 377.198 159.852 377.198 159.852C377.198 159.852 347.693 97.9558 320.48 91.9018C313.576 90.3729 302.528 87.9685 302.528 87.9685C302.528 88.511 304.119 102.012 290.42 110.36C271.222 122.049 248.399 130.519 248.399 130.519L249.324 177.792Z" fill="#FF725E"/>
<path d="M297.238 111.568L235.589 129.36L181.818 140.581L205.738 72.3835L171.485 61.6811L136.406 137.991C125.309 164.192 128.293 175.77 138.65 187.138C146.973 196.275 168.822 191.812 180.979 189.543L285.956 179.741L297.238 111.568Z" fill="#FF725E"/>
<path d="M174.124 62.236L192.742 28.2052L208.771 15.2834L229.461 18.1317C229.461 18.1317 235.404 24.9008 233.16 28.2546C230.916 31.6083 228.795 40.0297 226.464 36.9595C224.134 33.8894 223.653 27.4038 223.653 27.4038L218.191 27.1079V36.7499L229.189 40.0913C229.189 40.0913 240.064 31.0411 241.162 33.0263C242.259 35.0114 241.297 38.6857 235.083 43.9506C228.869 49.2155 221.323 57.341 221.323 57.341L211.533 59.659L203.925 71.8163L174.124 62.236Z" fill="#FFBE9D"/>
<path d="M203.925 71.8163C203.925 71.8163 203.925 71.7423 204.036 71.6067L204.394 70.9902L205.837 68.6105L211.397 59.5726H211.459L221.237 57.2176L221.138 57.2793C225.862 52.1314 230.876 47.2573 236.156 42.6806C237.653 41.3546 238.963 39.8325 240.052 38.1555C240.609 37.3054 240.995 36.3546 241.187 35.3566C241.285 34.8724 241.285 34.3735 241.187 33.8893C241.132 33.6602 241.045 33.4402 240.928 33.2358C240.928 33.1372 240.706 33.0756 240.471 33.1125C239.451 33.3591 238.48 33.776 237.599 34.3455C236.674 34.9127 235.749 35.5785 234.837 36.1827C233.012 37.4773 231.199 38.883 229.411 40.3626L229.288 40.4612H229.128L218.13 37.1321L217.908 37.0581V36.8362C217.908 33.7784 217.908 30.5109 217.908 27.2065V26.8612H218.253L223.715 27.1448H223.986V27.4284C224.183 30.1054 224.799 32.7348 225.811 35.221C226.028 35.7102 226.292 36.1769 226.6 36.6143C226.884 37.0581 227.254 37.4034 227.599 37.3417C228.036 37.1738 228.402 36.8603 228.635 36.454C228.943 36.0228 229.219 35.5695 229.461 35.0977C230.459 33.1742 231.224 31.1397 232.26 29.2163C232.383 28.982 232.519 28.7354 232.667 28.5011C232.815 28.2899 232.947 28.0672 233.061 27.8353C233.061 27.7243 233.172 27.6257 233.221 27.5147L233.295 27.1695C233.357 26.9322 233.382 26.6869 233.369 26.442C233.324 25.4278 233.072 24.4335 232.63 23.5198C231.758 21.6639 230.634 19.9378 229.288 18.3906L229.485 18.4892L208.734 15.5917H208.956L192.927 28.4765L192.989 28.4025L179.302 53.2104L175.517 59.9795L174.518 61.7427C174.41 61.9421 174.29 62.1356 174.161 62.3222C174.161 62.3222 174.247 62.1126 174.457 61.7057C174.666 61.2988 174.999 60.6823 175.394 59.9056L179.093 53.0747C182.311 47.144 186.935 38.624 192.594 28.1682L208.623 15.2218L208.722 15.1355H208.845L229.535 17.959H229.646L229.72 18.0453C231.107 19.6424 232.268 21.4222 233.172 23.3349C233.648 24.3306 233.917 25.413 233.961 26.516C233.975 26.8023 233.946 27.0891 233.875 27.3668L233.776 27.7983C233.722 27.9332 233.66 28.065 233.591 28.1929C233.471 28.442 233.331 28.6811 233.172 28.908C233.036 29.13 232.901 29.3642 232.778 29.5985C231.779 31.4603 231.014 33.4948 229.991 35.4676C229.737 35.9702 229.444 36.4525 229.116 36.9102C228.793 37.4648 228.266 37.8717 227.648 38.0445C227.468 38.0673 227.286 38.0528 227.112 38.0019C226.938 37.951 226.776 37.8647 226.637 37.7486C226.403 37.5495 226.199 37.3168 226.033 37.0581C225.706 36.589 225.425 36.0893 225.195 35.5662C224.152 33.0094 223.515 30.3053 223.308 27.5517L223.616 27.8476L218.154 27.5517L218.487 27.2311C218.487 30.5479 218.487 33.8153 218.487 36.8608L218.265 36.5649L229.251 39.9187L228.98 39.9803C230.78 38.5007 232.605 37.0951 234.442 35.7881C235.367 35.1347 236.304 34.5552 237.253 33.9387C238.201 33.3105 239.253 32.8554 240.36 32.5947C240.546 32.5587 240.738 32.5754 240.914 32.6429C241.091 32.7105 241.245 32.8262 241.359 32.9769C241.511 33.2341 241.623 33.5125 241.692 33.803C241.823 34.3566 241.844 34.9306 241.754 35.4922C241.542 36.5619 241.123 37.5798 240.521 38.4884C239.403 40.2058 238.055 41.7615 236.514 43.1122C231.24 47.6338 226.218 52.4415 221.471 57.5135L211.669 59.7946L211.78 59.7206L206.071 68.6722C205.43 69.6832 204.924 70.46 204.567 71.0025L204.172 71.5944L203.925 71.8163Z" fill="#EB996E"/>
<path d="M291.579 195.227C291.057 194.928 290.558 194.59 290.087 194.216C289.631 193.858 289.064 193.451 288.373 192.983C287.683 192.514 286.943 191.984 286.043 191.466C283.99 190.213 281.856 189.097 279.656 188.125C276.95 186.962 274.159 186.006 271.309 185.264C266.102 183.982 260.764 183.312 255.403 183.267C253.344 183.267 251.704 183.267 250.471 183.267C249.872 183.312 249.27 183.312 248.671 183.267C249.256 183.122 249.856 183.04 250.459 183.02C251.605 182.897 253.282 182.811 255.391 182.774C260.791 182.684 266.18 183.302 271.42 184.611C274.306 185.358 277.126 186.339 279.853 187.545C282.064 188.557 284.199 189.727 286.24 191.047C287.128 191.59 287.868 192.169 288.534 192.65C289.112 193.055 289.667 193.491 290.198 193.957C290.701 194.331 291.164 194.757 291.579 195.227Z" fill="#263238"/>
<path d="M284.822 114.786C284.226 115.064 283.607 115.29 282.973 115.464L277.868 117.08C273.54 118.424 267.56 120.236 260.939 122.197C254.318 124.157 248.313 125.896 243.961 127.129L238.782 128.546C238.157 128.758 237.513 128.906 236.859 128.99C237.451 128.714 238.066 128.487 238.696 128.312L243.813 126.697C248.128 125.353 254.121 123.54 260.742 121.58C267.363 119.62 273.38 117.881 277.732 116.648L282.911 115.218C283.533 115.014 284.173 114.87 284.822 114.786Z" fill="#263238"/>
<path d="M382.032 291.783C381.841 292.056 381.622 292.309 381.378 292.535C381.144 292.769 380.873 293.078 380.515 293.398L379.282 294.483C376.466 296.645 373.227 298.191 369.776 299.021C364.653 300.247 359.316 300.281 354.178 299.119C347.933 297.571 342.033 294.87 336.781 291.154C331.544 287.465 326.545 283.449 321.812 279.132C317.398 275.236 313.403 271.734 309.864 269.096C307.081 266.963 304.161 265.014 301.122 263.264C300.05 262.66 299.199 262.203 298.656 261.907C298.351 261.768 298.058 261.603 297.781 261.414C298.101 261.51 298.411 261.638 298.706 261.796C299.31 262.043 300.173 262.475 301.283 263.029C304.386 264.696 307.357 266.597 310.173 268.714C313.761 271.352 317.805 274.792 322.244 278.651C326.953 282.917 331.919 286.891 337.114 290.55C342.303 294.216 348.12 296.899 354.277 298.466C359.337 299.621 364.592 299.621 369.652 298.466C373.057 297.685 376.269 296.226 379.097 294.175L380.392 293.151C380.762 292.843 381.033 292.547 381.279 292.338C381.52 292.139 381.771 291.953 382.032 291.783Z" fill="#263238"/>
<path d="M358.666 221.724C358.263 221.825 357.848 221.867 357.433 221.847C356.318 221.877 355.201 221.832 354.092 221.712C352.426 221.551 350.777 221.254 349.16 220.824C345.216 219.785 341.496 218.029 338.186 215.645C336.844 214.671 335.579 213.595 334.401 212.427C333.609 211.654 332.868 210.83 332.181 209.961C331.906 209.656 331.677 209.311 331.503 208.938C331.59 208.864 332.675 210.232 334.721 212.131C335.92 213.241 337.193 214.267 338.531 215.201C340.183 216.323 341.914 217.325 343.71 218.198C345.52 219.037 347.392 219.738 349.308 220.294C350.882 220.736 352.484 221.07 354.104 221.292C356.928 221.638 358.666 221.613 358.666 221.724Z" fill="#263238"/>
<g opacity="0.2">
<path opacity="0.2" d="M311.652 269.885C316.658 267.826 322.515 269.429 327.065 272.351C331.614 275.273 335.276 279.367 339.395 282.893C343.513 286.419 348.383 289.489 353.796 289.65C361.613 289.896 368.592 284.064 376.459 284.163C379.368 284.163 382.821 285.753 382.981 288.663C383.104 290.907 381.193 292.695 379.282 293.941C370.787 299.538 365.103 303.287 346.546 296.16C333.733 289.093 321.985 280.247 311.652 269.885Z" fill="black"/>
</g>
<path d="M291.283 254.029C291.123 254.115 282.344 238.271 271.678 218.666C261.013 199.062 252.468 183.07 252.629 182.983C252.789 182.897 261.568 198.729 272.233 218.358C282.899 237.987 291.443 253.942 291.283 254.029Z" fill="#263238"/>
<path d="M232.111 184.216C231.771 183.617 231.482 182.99 231.248 182.342C230.718 181.109 230.015 179.321 229.202 177.09C224.96 165.423 222.065 153.311 220.571 140.987C220.299 138.62 220.114 136.709 220.04 135.377C219.958 134.694 219.934 134.005 219.966 133.318C220.128 133.986 220.236 134.667 220.287 135.353C220.447 136.672 220.694 138.583 221.027 140.926C221.68 145.623 222.79 152.097 224.455 159.137C226.119 166.178 228.067 172.441 229.584 176.942C230.348 179.186 230.989 180.998 231.433 182.243C231.711 182.882 231.938 183.542 232.111 184.216Z" fill="#FAFAFA"/>
<path d="M239.288 184.118C238.96 183.481 238.68 182.822 238.449 182.145C237.956 180.912 237.278 178.976 236.501 176.633C232.485 164.408 229.867 151.767 228.696 138.953C228.474 136.487 228.351 134.502 228.302 133.121C228.24 132.407 228.24 131.689 228.302 130.975C228.449 131.678 228.54 132.391 228.573 133.109C228.696 134.477 228.893 136.462 229.177 138.904C229.72 143.836 230.669 150.531 232.186 157.892C233.702 165.253 235.527 171.8 236.957 176.498C237.685 178.853 238.289 180.752 238.72 182.059C238.958 182.731 239.147 183.419 239.288 184.118Z" fill="#FAFAFA"/>
<path d="M331.738 210.269C331.548 210.353 331.349 210.415 331.146 210.454L329.42 210.886C327.915 211.244 325.721 211.712 323.02 212.23C308.882 214.903 294.495 216.032 280.112 215.596C277.35 215.497 275.119 215.386 273.577 215.251L271.814 215.103C271.606 215.088 271.4 215.055 271.198 215.004C271.406 214.973 271.618 214.973 271.826 215.004H273.602C275.131 215.004 277.363 215.103 280.112 215.14C285.624 215.201 293.231 215.14 301.616 214.437C310 213.734 317.521 212.711 322.946 211.786C325.659 211.33 327.878 210.935 329.37 210.639L331.121 210.331C331.323 210.28 331.53 210.259 331.738 210.269Z" fill="#FAFAFA"/>
<path d="M383.782 189.567C383.295 190.026 382.767 190.439 382.204 190.8C381.156 191.602 379.603 192.712 377.655 194.031C367.444 200.891 356.343 206.322 344.66 210.171C342.416 210.898 340.591 211.404 339.308 211.774C338.656 211.983 337.988 212.14 337.311 212.242C337.929 211.95 338.573 211.715 339.234 211.539C340.467 211.133 342.292 210.528 344.512 209.739C356.063 205.669 367.103 200.269 377.408 193.649C379.381 192.416 380.971 191.343 382.056 190.603C382.603 190.212 383.18 189.865 383.782 189.567Z" fill="#FAFAFA"/>
<path d="M382.759 178.692L382.513 178.89L381.773 179.445L378.888 181.528L376.779 183.02C376.002 183.55 375.127 184.081 374.202 184.672C372.34 185.831 370.269 187.237 367.828 188.556L364.042 190.677C362.723 191.405 361.293 192.07 359.85 192.81C356.965 194.327 353.759 195.683 350.418 197.163C343.078 200.188 335.539 202.705 327.854 204.696C320.149 206.603 312.321 207.97 304.427 208.79C300.728 209.086 297.313 209.419 294.057 209.443C292.43 209.443 290.864 209.579 289.36 209.567L285.007 209.48C282.245 209.48 279.755 209.234 277.609 209.098C276.512 209.024 275.489 208.963 274.551 208.876L271.999 208.556L268.473 208.099L267.548 207.964H267.24H267.56L268.485 208.038L272.024 208.371L274.576 208.63C275.513 208.704 276.537 208.741 277.634 208.802C279.816 208.901 282.307 209.123 285.032 209.098H289.36C290.864 209.098 292.43 208.987 294.057 208.938C297.3 208.938 300.753 208.531 304.378 208.223C320.142 206.618 335.587 202.714 350.22 196.633C353.562 195.178 356.768 193.846 359.653 192.354C361.095 191.627 362.526 190.985 363.845 190.258L367.643 188.174C370.109 186.941 372.168 185.511 374.054 184.377C374.979 183.809 375.867 183.292 376.656 182.774L378.777 181.331L381.736 179.358L382.513 178.853C382.648 178.729 382.747 178.68 382.759 178.692Z" fill="#FAFAFA"/>
<path d="M196.823 97.7585C196.823 97.9312 188.488 95.6748 178.328 92.7156C168.168 89.7564 159.92 87.2287 159.969 87.1054C160.018 86.9821 168.304 89.1892 178.464 92.1484C188.624 95.1076 196.872 97.5859 196.823 97.7585Z" fill="#FAFAFA"/>
<path d="M195.196 102.395C195.196 102.567 186.725 100.262 176.393 97.253C166.06 94.2445 157.713 91.6552 157.762 91.4949C157.811 91.3346 166.233 93.628 176.577 96.6365C186.922 99.645 195.245 102.234 195.196 102.395Z" fill="#FAFAFA"/>
<g opacity="0.3">
<path opacity="0.3" d="M301.529 215.756C300.999 204.881 293.638 195.091 284.181 189.703C274.724 184.315 263.664 182.848 252.789 183.452L280.593 231.539C283.784 231.791 286.994 231.608 290.136 230.996C293.636 230.405 296.801 228.56 299.039 225.805C300.989 222.837 301.867 219.292 301.529 215.756Z" fill="black"/>
</g>
</svg>
