<svg width="582" height="451" viewBox="0 0 582 451" fill="none" xmlns="http://www.w3.org/2000/svg">
<path d="M624.17 408.706H0V409.018H624.17V408.706Z" fill="#EBEBEB"/>
<path d="M561.628 428.792H536.574V429.104H561.628V428.792Z" fill="#EBEBEB"/>
<path d="M486.228 424.423H446.256V424.735H486.228V424.423Z" fill="#EBEBEB"/>
<path d="M388.446 417.208H342.282V417.52H388.446V417.208Z" fill="#EBEBEB"/>
<path d="M148.116 426.395H94.1997V426.708H148.116V426.395Z" fill="#EBEBEB"/>
<path d="M83.077 426.395H75.175V426.708H83.077V426.395Z" fill="#EBEBEB"/>
<path d="M211.257 417.045H164.469V417.357H211.257V417.045Z" fill="#EBEBEB"/>
<path d="M295.856 353.03H54.8146C52.9263 353.027 51.1164 352.275 49.7824 350.938C48.4483 349.602 47.699 347.791 47.699 345.902V7.0656C47.7155 5.18813 48.472 3.39296 49.8043 2.07002C51.1366 0.747079 52.937 0.00321621 54.8146 0H295.856C297.747 0 299.56 0.750986 300.897 2.08775C302.234 3.42451 302.984 5.23755 302.984 7.12802V345.902C302.984 347.793 302.234 349.606 300.897 350.943C299.56 352.279 297.747 353.03 295.856 353.03ZM54.8146 0.249669C53.009 0.252976 51.2786 0.972538 50.0031 2.25042C48.7275 3.52829 48.0111 5.26007 48.0111 7.0656V345.902C48.0111 347.708 48.7275 349.44 50.0031 350.718C51.2786 351.995 53.009 352.715 54.8146 352.718H295.856C297.663 352.715 299.395 351.996 300.672 350.718C301.95 349.441 302.669 347.709 302.672 345.902V7.0656C302.669 5.25892 301.95 3.52717 300.672 2.24965C299.395 0.972132 297.663 0.252969 295.856 0.249669H54.8146Z" fill="#EBEBEB"/>
<path d="M565.885 353.03H324.83C322.941 353.027 321.13 352.275 319.794 350.939C318.458 349.603 317.706 347.792 317.702 345.902V7.0656C317.722 5.18699 318.481 3.39183 319.816 2.06924C321.15 0.746643 322.952 0.00318113 324.83 0H565.885C567.76 0.00649698 569.557 0.751812 570.887 2.0744C572.217 3.39699 572.971 5.19029 572.988 7.0656V345.902C572.988 347.789 572.24 349.598 570.909 350.934C569.577 352.27 567.771 353.024 565.885 353.03ZM324.83 0.249669C323.024 0.252969 321.292 0.972132 320.014 2.24965C318.737 3.52717 318.018 5.25892 318.014 7.0656V345.902C318.018 347.709 318.737 349.441 320.014 350.718C321.292 351.996 323.024 352.715 324.83 352.718H565.885C567.691 352.715 569.423 351.996 570.701 350.718C571.978 349.441 572.697 347.709 572.701 345.902V7.0656C572.697 5.25892 571.978 3.52717 570.701 2.24965C569.423 0.972132 567.691 0.252969 565.885 0.249669H324.83Z" fill="#EBEBEB"/>
<path d="M159.787 289.69C147.541 250.142 118.592 138.216 147.778 40.9455C147.889 40.6575 147.881 40.3372 147.756 40.0551C147.631 39.773 147.399 39.5522 147.111 39.4413C146.823 39.3304 146.502 39.3384 146.22 39.4637C145.938 39.5889 145.717 39.8211 145.606 40.1091C143.565 44.506 141.834 49.0402 140.426 53.6786C140.346 53.9315 140.181 54.1493 139.96 54.2959C139.739 54.4424 139.474 54.5088 139.21 54.484C138.946 54.4592 138.699 54.3447 138.509 54.1595C138.319 53.9744 138.198 53.7298 138.166 53.4664C136.964 42.1823 136.547 30.8284 136.918 19.4866C136.922 19.1994 136.821 18.9205 136.634 18.7028C136.447 18.4851 136.186 18.3436 135.902 18.3051C135.617 18.2667 135.328 18.3339 135.09 18.4941C134.852 18.6544 134.68 18.8964 134.608 19.1745C132.127 29.2892 130.969 39.6831 131.163 50.0958C131.189 50.3992 131.095 50.7007 130.901 50.9352C130.706 51.1697 130.428 51.3186 130.125 51.3497C129.822 51.3808 129.519 51.2917 129.281 51.1015C129.043 50.9113 128.89 50.6353 128.854 50.333C128.055 46.0013 127.331 41.3575 126.719 36.439C126.678 36.1604 126.538 35.9058 126.325 35.7217C126.112 35.5376 125.84 35.4363 125.558 35.4363C125.276 35.4363 125.004 35.5376 124.791 35.7217C124.578 35.9058 124.438 36.1604 124.397 36.439C122.85 55.3952 125.7 74.4526 132.723 92.1274C132.723 92.1274 132.723 92.2398 132.723 92.3022C124.844 74.8534 118.71 56.6681 114.41 38.0119C114.351 37.7312 114.19 37.4824 113.958 37.3133C113.727 37.1443 113.44 37.0671 113.155 37.0966C112.87 37.126 112.605 37.2601 112.413 37.4729C112.221 37.6857 112.114 37.9622 112.113 38.2491C111.877 47.5366 112.533 56.8253 114.073 65.9872C114.128 66.281 114.066 66.5845 113.903 66.8344C113.739 67.0843 113.485 67.2615 113.194 67.329C112.903 67.3966 112.597 67.3493 112.34 67.197C112.083 67.0448 111.894 66.7992 111.814 66.5115C111.277 64.7888 110.753 63.0536 110.253 61.2685C110.172 61 109.998 60.7693 109.762 60.6183C109.526 60.4672 109.243 60.4058 108.966 60.445C108.688 60.4842 108.434 60.6216 108.248 60.8322C108.063 61.0428 107.96 61.3127 107.956 61.593C107.979 73.638 109.374 85.6412 112.113 97.3705C112.185 97.6572 112.145 97.9604 112 98.2184C111.856 98.4764 111.619 98.6696 111.337 98.7588C111.055 98.8479 110.75 98.8262 110.484 98.6982C110.218 98.5701 110.01 98.3453 109.904 98.0695C105.46 86.8719 100.991 74.401 97.0959 61.1686C97.0146 60.8992 96.8393 60.6679 96.6018 60.5169C96.3643 60.366 96.0804 60.3054 95.802 60.3463C95.5235 60.3871 95.2691 60.5267 95.0849 60.7395C94.9008 60.9523 94.7993 61.2242 94.7989 61.5057C95.498 107.357 120.677 151.049 129.515 164.918C112.406 139.001 97.654 111.603 85.4364 83.052C85.3207 82.8003 85.1196 82.5977 84.8689 82.48C84.6181 82.3622 84.3338 82.337 84.0663 82.4088C83.7987 82.4805 83.5652 82.6446 83.407 82.872C83.2488 83.0994 83.1761 83.3754 83.2018 83.6512C85.2391 98.7573 89.1603 113.549 94.8738 127.68C94.9829 127.955 94.9831 128.261 94.8744 128.536C94.7657 128.81 94.5563 129.033 94.2888 129.159C94.0214 129.285 93.716 129.304 93.4351 129.212C93.1541 129.121 92.9186 128.926 92.7766 128.666C89.7806 123.124 86.847 117.431 84.0382 111.477C83.9127 111.232 83.705 111.039 83.4515 110.931C83.198 110.824 82.9147 110.809 82.6514 110.889C82.3881 110.97 82.1614 111.14 82.0109 111.371C81.8605 111.601 81.796 111.877 81.8287 112.151C85.1118 133.697 93.5631 155.693 102.801 174.68C102.91 174.949 102.916 175.249 102.817 175.522C102.719 175.795 102.522 176.022 102.266 176.158C102.01 176.295 101.712 176.332 101.431 176.261C101.149 176.191 100.903 176.019 100.741 175.779C96.0676 167.804 91.8052 159.596 87.9705 151.186C87.8615 150.929 87.6634 150.72 87.4127 150.597C87.1619 150.474 86.8753 150.446 86.6053 150.517C86.3354 150.589 86.1001 150.755 85.9427 150.985C85.7854 151.216 85.7164 151.496 85.7485 151.773C87.1691 166.558 91.3259 180.951 98.0071 194.217C98.1512 194.483 98.1857 194.794 98.1035 195.085C98.0213 195.376 97.8289 195.624 97.567 195.775C97.3052 195.926 96.9946 195.969 96.7015 195.895C96.4083 195.821 96.1557 195.635 95.9973 195.378C91.9527 189.348 87.958 182.982 84.1256 176.328C83.9838 176.096 83.7658 175.92 83.509 175.831C83.2521 175.742 82.9723 175.745 82.7173 175.839C82.4623 175.934 82.248 176.114 82.111 176.349C81.9739 176.583 81.9227 176.858 81.966 177.127C85.349 195.752 93.7128 212.854 103.325 227.36C103.487 227.606 103.55 227.905 103.5 228.195C103.45 228.486 103.291 228.746 103.056 228.924C102.821 229.102 102.527 229.184 102.234 229.153C101.941 229.122 101.67 228.981 101.478 228.758C94.4139 220.603 87.7844 212.082 81.6164 203.23C81.4636 202.998 81.2328 202.828 80.9657 202.752C80.6986 202.676 80.4131 202.698 80.1609 202.814C79.9087 202.93 79.7065 203.133 79.5911 203.386C79.4756 203.638 79.4546 203.924 79.5317 204.191C92.3397 253.163 146.143 292.361 147.167 293.11L151.449 295.881C152.393 296.519 153.513 296.848 154.652 296.822C155.792 296.797 156.896 296.418 157.811 295.739C158.726 295.059 159.408 294.112 159.762 293.029C160.116 291.945 160.125 290.779 159.787 289.69Z" fill="#A2CAA2"/>
<path d="M178.949 266.296C176.69 232.403 174.842 137.58 216.599 65.4754C216.742 65.2669 216.795 65.0103 216.749 64.7621C216.702 64.514 216.558 64.2946 216.35 64.1522C216.141 64.0098 215.885 63.9562 215.636 64.003C215.388 64.0498 215.169 64.1933 215.026 64.4019C212.575 67.5151 210.348 70.7982 208.36 74.2263C208.246 74.4101 208.072 74.5498 207.869 74.6228C207.665 74.6958 207.442 74.6978 207.237 74.6284C207.032 74.5591 206.856 74.4224 206.738 74.2407C206.62 74.0589 206.567 73.8427 206.588 73.6271C207.77 64.3915 209.588 55.2485 212.03 46.2635C212.081 46.0389 212.049 45.8038 211.94 45.6009C211.832 45.3979 211.654 45.2406 211.44 45.1575C211.225 45.0744 210.988 45.071 210.771 45.148C210.554 45.2249 210.372 45.3771 210.258 45.5769C206.355 53.176 203.456 61.2494 201.632 69.595C201.6 69.8449 201.471 70.0722 201.272 70.2267C201.073 70.3812 200.821 70.4503 200.571 70.4189C200.321 70.3874 200.094 70.2579 199.939 70.059C199.784 69.86 199.715 69.6077 199.747 69.3578C199.934 65.7501 200.234 61.8677 200.683 57.8606C200.718 57.6203 200.66 57.3758 200.522 57.1762C200.384 56.9766 200.175 56.8367 199.938 56.7845C199.701 56.7324 199.453 56.7718 199.244 56.895C199.035 57.0182 198.88 57.216 198.811 57.4486C193.979 72.2889 192.638 88.0439 194.891 103.487C194.886 103.529 194.886 103.571 194.891 103.612C191.921 88.1919 190.486 72.5152 190.609 56.812C190.605 56.5816 190.519 56.3602 190.366 56.1882C190.212 56.0162 190.002 55.9049 189.774 55.8747C189.546 55.8444 189.314 55.8972 189.121 56.0234C188.929 56.1496 188.788 56.3408 188.724 56.5623C186.766 63.9165 185.512 71.4405 184.979 79.0324C184.952 79.2669 184.84 79.4833 184.664 79.6404C184.488 79.7974 184.26 79.8843 184.024 79.8843C183.788 79.8843 183.56 79.7974 183.384 79.6404C183.208 79.4833 183.096 79.2669 183.069 79.0324C182.969 77.5594 182.882 76.0614 182.819 74.5509C182.801 74.3257 182.703 74.1143 182.544 73.9538C182.385 73.7933 182.175 73.6939 181.95 73.673C181.725 73.6522 181.5 73.7112 181.314 73.8398C181.129 73.9683 180.994 74.1582 180.934 74.3761C178.664 83.9864 177.499 93.8248 177.464 103.7C177.457 103.939 177.361 104.167 177.195 104.339C177.029 104.512 176.805 104.616 176.566 104.632C176.327 104.647 176.091 104.573 175.904 104.424C175.717 104.275 175.592 104.061 175.554 103.824C174.131 94.0749 172.945 83.2643 172.346 71.9418C172.327 71.7167 172.23 71.5053 172.071 71.3448C171.912 71.1843 171.701 71.0848 171.477 71.064C171.252 71.0431 171.027 71.1022 170.841 71.2307C170.655 71.3593 170.52 71.5492 170.461 71.7671C162.284 108.606 174.106 148.178 178.513 161.036C169.781 137.121 163.209 112.472 158.876 87.3838C158.84 87.1586 158.724 86.9538 158.55 86.806C158.376 86.6581 158.156 86.577 157.927 86.577C157.699 86.577 157.479 86.6581 157.305 86.806C157.131 86.9538 157.015 87.1586 156.979 87.3838C155.737 99.8165 156.056 112.356 157.927 124.709C157.979 124.956 157.93 125.213 157.792 125.423C157.654 125.634 157.438 125.781 157.191 125.833C156.944 125.884 156.687 125.835 156.477 125.697C156.266 125.559 156.119 125.343 156.067 125.096C154.732 120.103 153.483 114.96 152.322 109.717C152.274 109.491 152.146 109.291 151.962 109.152C151.778 109.014 151.55 108.946 151.32 108.961C151.09 108.976 150.873 109.073 150.709 109.235C150.544 109.396 150.444 109.612 150.425 109.841C148.952 127.655 151.523 146.817 155.281 163.72C155.316 163.954 155.263 164.192 155.132 164.39C155.002 164.587 154.804 164.729 154.575 164.79C154.346 164.85 154.103 164.824 153.893 164.716C153.682 164.609 153.519 164.427 153.433 164.207C151.224 156.956 149.382 149.598 147.916 142.161C147.872 141.943 147.754 141.747 147.583 141.606C147.411 141.465 147.195 141.389 146.973 141.389C146.751 141.389 146.536 141.465 146.364 141.606C146.192 141.747 146.074 141.943 146.031 142.161C144.35 154.23 144.934 166.507 147.753 178.363C147.803 178.598 147.762 178.844 147.638 179.051C147.515 179.258 147.319 179.411 147.088 179.48C146.857 179.549 146.609 179.529 146.393 179.424C146.176 179.319 146.007 179.136 145.918 178.912C143.846 173.332 141.861 167.49 140.064 161.435C139.995 161.224 139.855 161.042 139.667 160.923C139.479 160.803 139.256 160.752 139.035 160.778C138.814 160.805 138.609 160.907 138.455 161.068C138.301 161.229 138.208 161.438 138.191 161.66C137.355 177.177 140.775 192.407 145.681 205.814C145.753 206.04 145.74 206.284 145.643 206.5C145.545 206.717 145.372 206.889 145.155 206.986C144.938 207.082 144.693 207.094 144.468 207.021C144.243 206.947 144.052 206.793 143.934 206.588C139.843 198.736 136.172 190.673 132.936 182.432C132.85 182.227 132.695 182.059 132.499 181.955C132.303 181.851 132.076 181.818 131.858 181.862C131.641 181.906 131.445 182.025 131.304 182.197C131.164 182.369 131.088 182.585 131.088 182.807C131.999 224.327 167.502 265.834 168.176 266.62L171.072 269.641C171.701 270.346 172.535 270.835 173.456 271.041C174.378 271.247 175.341 271.16 176.21 270.791C177.079 270.421 177.81 269.79 178.302 268.983C178.793 268.177 179.02 267.237 178.949 266.296Z" fill="#E6E6E6"/>
<path d="M133.085 300.55C135.407 271.839 138.079 191.321 103.5 129.615C103.395 129.436 103.362 129.224 103.408 129.022C103.454 128.82 103.576 128.643 103.749 128.528C103.921 128.413 104.131 128.368 104.336 128.403C104.54 128.438 104.724 128.55 104.848 128.716C106.892 131.391 108.744 134.207 110.391 137.143C110.483 137.304 110.628 137.428 110.802 137.495C110.975 137.562 111.166 137.567 111.343 137.51C111.52 137.453 111.672 137.337 111.773 137.182C111.875 137.026 111.92 136.841 111.901 136.656C111.007 128.801 109.568 121.017 107.594 113.362C107.558 113.262 107.541 113.155 107.545 113.049C107.549 112.942 107.574 112.838 107.619 112.741C107.663 112.644 107.727 112.557 107.805 112.485C107.883 112.413 107.975 112.356 108.075 112.319C108.175 112.283 108.281 112.266 108.388 112.27C108.494 112.274 108.599 112.299 108.696 112.344C108.793 112.388 108.88 112.452 108.952 112.53C109.024 112.608 109.08 112.7 109.117 112.8C112.339 119.3 114.705 126.19 116.158 133.298C116.191 133.504 116.303 133.689 116.47 133.815C116.636 133.941 116.845 133.998 117.053 133.974C117.26 133.95 117.45 133.847 117.584 133.686C117.717 133.525 117.783 133.319 117.768 133.111C117.644 130.052 117.431 126.769 117.107 123.336C117.081 123.133 117.133 122.928 117.252 122.761C117.371 122.595 117.548 122.479 117.749 122.438C117.949 122.397 118.158 122.434 118.333 122.54C118.508 122.646 118.636 122.815 118.692 123.011C122.615 135.665 123.572 149.052 121.488 162.134V162.247C124.183 149.192 125.584 135.904 125.67 122.575C125.639 122.354 125.696 122.131 125.83 121.953C125.963 121.775 126.162 121.657 126.382 121.626C126.602 121.594 126.826 121.652 127.004 121.785C127.182 121.919 127.299 122.117 127.331 122.337C128.901 128.618 129.863 135.035 130.202 141.499C130.202 141.715 130.287 141.921 130.439 142.073C130.592 142.225 130.798 142.311 131.013 142.311C131.228 142.311 131.435 142.225 131.587 142.073C131.739 141.921 131.825 141.715 131.825 141.499C131.937 140.251 132.024 139.003 132.087 137.754C132.088 137.552 132.165 137.357 132.302 137.208C132.439 137.059 132.627 136.967 132.829 136.95C133.031 136.933 133.232 136.992 133.393 137.115C133.553 137.239 133.662 137.418 133.697 137.617C135.512 145.813 136.387 154.189 136.306 162.584C136.307 162.786 136.384 162.981 136.521 163.13C136.659 163.279 136.847 163.371 137.049 163.388C137.25 163.405 137.451 163.346 137.612 163.223C137.773 163.099 137.881 162.921 137.917 162.721C139.24 154.457 140.413 145.244 141.012 135.682C141.016 135.481 141.095 135.288 141.234 135.141C141.372 134.995 141.56 134.905 141.761 134.889C141.962 134.874 142.162 134.933 142.321 135.057C142.48 135.18 142.588 135.359 142.623 135.557C149.127 166.891 138.628 200.359 134.721 211.169C142.398 190.948 148.247 170.08 152.198 148.815C152.23 148.618 152.333 148.44 152.487 148.315C152.642 148.19 152.837 148.125 153.036 148.135C153.235 148.144 153.423 148.226 153.566 148.365C153.708 148.504 153.794 148.691 153.808 148.89C154.715 159.457 154.296 170.097 152.56 180.56C152.54 180.757 152.593 180.955 152.71 181.116C152.826 181.277 152.997 181.389 153.191 181.432C153.385 181.475 153.588 181.446 153.761 181.35C153.934 181.253 154.067 181.097 154.132 180.909C155.381 176.69 156.454 172.346 157.453 167.902C157.488 167.703 157.596 167.525 157.755 167.401C157.914 167.278 158.114 167.218 158.315 167.234C158.516 167.249 158.704 167.339 158.842 167.486C158.981 167.632 159.059 167.825 159.063 168.027C160.1 183.169 157.69 199.41 154.295 213.716C154.237 213.924 154.264 214.147 154.371 214.336C154.477 214.524 154.654 214.663 154.863 214.721C155.071 214.779 155.294 214.751 155.483 214.645C155.671 214.538 155.81 214.361 155.868 214.153C157.844 208.024 159.51 201.799 160.861 195.503C160.894 195.315 160.993 195.145 161.139 195.022C161.285 194.9 161.469 194.833 161.66 194.833C161.851 194.833 162.035 194.9 162.181 195.022C162.327 195.145 162.426 195.315 162.459 195.503C163.748 205.775 163.108 216.198 160.574 226.237C160.513 226.441 160.534 226.661 160.634 226.85C160.734 227.038 160.904 227.18 161.108 227.244C161.311 227.308 161.532 227.289 161.722 227.192C161.911 227.094 162.055 226.926 162.122 226.723C163.944 222.017 165.705 217.074 167.302 211.968C167.36 211.785 167.481 211.628 167.644 211.525C167.806 211.422 168 211.381 168.191 211.408C168.381 211.435 168.556 211.528 168.683 211.672C168.811 211.816 168.884 212.001 168.888 212.193C169.412 225.363 166.391 238.258 161.985 249.581C161.91 249.773 161.912 249.988 161.989 250.179C162.067 250.371 162.215 250.525 162.404 250.612C162.592 250.698 162.805 250.709 163.001 250.642C163.197 250.576 163.36 250.437 163.458 250.255C167.024 243.639 170.237 236.838 173.082 229.882C173.155 229.706 173.287 229.562 173.455 229.474C173.624 229.386 173.817 229.36 174.003 229.4C174.189 229.44 174.354 229.544 174.471 229.693C174.588 229.843 174.649 230.029 174.643 230.219C173.394 265.459 142.748 300.276 142.186 300.937L139.689 303.434C139.144 303.998 138.44 304.381 137.671 304.534C136.902 304.686 136.104 304.599 135.386 304.286C134.667 303.972 134.062 303.446 133.651 302.778C133.24 302.111 133.042 301.333 133.085 300.55Z" fill="#B1DF95"/>
<path d="M94.724 242.777C92.8555 242.775 91.006 243.152 89.2874 243.885C87.5688 244.619 86.0167 245.693 84.7249 247.043C83.4332 248.393 82.4287 249.991 81.7721 251.74C81.1155 253.489 80.8205 255.354 80.9049 257.22C82.7399 297.592 91.8778 408.706 136.88 408.706C181.883 408.706 191.021 297.604 192.856 257.22C192.939 255.354 192.642 253.491 191.985 251.742C191.328 249.994 190.323 248.396 189.032 247.047C187.741 245.697 186.189 244.623 184.471 243.889C182.754 243.155 180.905 242.777 179.037 242.777H94.724Z" fill="#B3A2A2"/>
<path d="M479.912 271.114H242.515V278.092H479.912V271.114Z" fill="#D1D1D1"/>
<path d="M479.912 278.105H529.633V271.127H479.912V278.105Z" fill="#949494"/>
<path d="M504.766 278.093H502.694L478.638 408.706H480.723L504.766 278.093Z" fill="#8A8A8A"/>
<path d="M504.766 278.093H506.851L530.906 408.706H528.822L504.766 278.093Z" fill="#919191"/>
<path d="M267.382 278.093H265.297L241.242 408.706H243.326L267.382 278.093Z" fill="#959595"/>
<path d="M267.382 278.093H269.454L293.51 408.706H291.437L267.382 278.093Z" fill="#999999"/>
<path d="M363.966 361.132H339.424V408.706H363.966V361.132Z" fill="#D2D1D1"/>
<path d="M288.541 408.706H339.424V361.132H288.541V408.706Z" fill="#E1DFDF"/>
<path d="M303.272 381.293H288.541V391.017H303.272V381.293Z" fill="#F0F0F0"/>
<path d="M303.272 393.701H288.541V403.426H303.272V393.701Z" fill="#F0F0F0"/>
<path d="M365.039 357.499H339.798V361.132H365.039V357.499Z" fill="#E0E0E0"/>
<path d="M287.455 361.132H339.798V357.499H287.455V361.132Z" fill="#F0F0F0"/>
<path d="M467.903 338.188H431.526V408.706H467.903V338.188Z" fill="#D0CCCC"/>
<path d="M356.101 408.694H431.526V338.175H356.101V408.694Z" fill="#DAD9D9"/>
<path d="M425.397 346.252H399.331V369.221H425.397V346.252Z" fill="#F0F0F0"/>
<path d="M425.397 375.588H399.331V398.557H425.397V375.588Z" fill="#F0F0F0"/>
<path d="M469.513 332.807H432.088V338.188H469.513V332.807Z" fill="#E0E0E0"/>
<path d="M354.491 338.175H432.075V332.795H354.491V338.175Z" fill="#F0F0F0"/>
<path d="M302.335 450.551C431.834 450.551 536.813 444.422 536.813 436.862C536.813 429.301 431.834 423.172 302.335 423.172C172.836 423.172 67.856 429.301 67.856 436.862C67.856 444.422 172.836 450.551 302.335 450.551Z" fill="#BCBCBC"/>
<path d="M538.1 138.947L537.7 147.964L538.997 148.021L539.397 139.005L538.1 138.947Z" fill="#407BFF"/>
<path d="M539.49 107.772L538.423 131.829L539.72 131.887L540.787 107.83L539.49 107.772Z" fill="#407BFF"/>
<path d="M518.997 252.714H269.566C268.172 252.723 266.79 252.446 265.506 251.901C264.221 251.357 263.062 250.555 262.099 249.547C261.136 248.538 260.389 247.343 259.904 246.035C259.419 244.727 259.207 243.334 259.28 241.941L267.694 54.0531C267.855 51.1686 269.104 48.4526 271.189 46.4532C273.274 44.4537 276.04 43.3197 278.929 43.2799H528.385C529.78 43.2694 531.163 43.5446 532.448 44.0886C533.733 44.6326 534.893 45.4339 535.856 46.4431C536.82 47.4524 537.567 48.6482 538.051 49.9569C538.535 51.2657 538.746 52.6597 538.671 54.0531L530.257 241.941C530.093 244.828 528.84 247.546 526.75 249.546C524.66 251.545 521.889 252.677 518.997 252.714Z" fill="#407BFF"/>
<path opacity="0.5" d="M517.162 252.714H269.566C268.172 252.722 266.79 252.446 265.506 251.901C264.221 251.357 263.062 250.555 262.099 249.547C261.136 248.538 260.389 247.343 259.904 246.035C259.419 244.727 259.207 243.334 259.28 241.941L267.694 54.053C267.855 51.1686 269.104 48.4526 271.189 46.4531C273.274 44.4536 276.04 43.3196 278.929 43.2798H526.55C527.945 43.2712 529.328 43.5476 530.612 44.0921C531.897 44.6366 533.057 45.4377 534.021 46.4464C534.986 47.455 535.734 48.65 536.22 49.958C536.706 51.2659 536.92 52.6594 536.848 54.053L528.422 241.941C528.258 244.828 527.005 247.546 524.915 249.546C522.825 251.545 520.054 252.677 517.162 252.714Z" fill="white"/>
<path opacity="0.4" d="M444.459 202.63L399.818 202.231L405.398 139.602H448.229L444.459 202.63Z" fill="#407BFF"/>
<path opacity="0.4" d="M336.615 132.062L291.962 131.862L297.255 69.2329L341.908 69.4326L336.615 132.062Z" fill="#407BFF"/>
<path opacity="0.4" d="M452.136 128.791L407.221 130.689L409.98 68.2842L453.097 66.4616L452.136 128.791Z" fill="#407BFF"/>
<path opacity="0.4" d="M501.683 180.435L457.804 176.99L463.895 114.423L506.876 118.917L501.683 180.435Z" fill="#407BFF"/>
<path opacity="0.4" d="M391.479 114.822L357.125 113.898L360.583 65.75L394.538 66.2618L391.479 114.822Z" fill="#407BFF"/>
<path opacity="0.4" d="M331.571 243.426L297.829 242.715L301.274 194.554L333.681 193.942L331.571 243.426Z" fill="#407BFF"/>
<path opacity="0.4" d="M514.591 106.97L480.199 107.058L484.106 58.8592L517.836 58.7718L514.591 106.97Z" fill="#407BFF"/>
<path opacity="0.4" d="M345.977 182.907L379.995 186.826L386.074 137.767L353.617 135.045L345.977 182.907Z" fill="#407BFF"/>
<path d="M442.711 200.795L398.07 200.396L403.651 137.767L448.291 138.179L442.711 200.795Z" fill="white"/>
<path d="M336.265 130.651L291.625 130.252L297.205 67.6225L341.845 68.0345L336.265 130.651Z" fill="white"/>
<path d="M450.388 126.956L405.473 128.854L408.22 66.4616L453.147 64.5641L450.388 126.956Z" fill="white"/>
<path d="M500.31 179.798L456.056 175.167L462.148 112.588L506.402 117.219L500.31 179.798Z" fill="white"/>
<path d="M390.818 113L356.463 112.076L359.909 63.9149L394.263 64.8387L390.818 113Z" fill="white"/>
<path d="M330.436 241.803L296.081 240.88L299.527 192.731L333.881 193.655L330.436 241.803Z" fill="white"/>
<path d="M513.43 106.296L479.038 106.383L482.945 58.1726L517.337 58.0852L513.43 106.296Z" fill="white"/>
<path d="M344.23 181.072L378.247 184.991L385.874 137.13L351.87 133.21L344.23 181.072Z" fill="white"/>
<path opacity="0.4" d="M362.218 204.004C362.218 204.004 362.018 217.074 360.146 220.956C366.25 222.704 378.022 222.679 378.022 222.679C378.022 222.679 380.594 210.108 380.169 205.202C376.662 204.366 362.218 204.004 362.218 204.004Z" fill="#407BFF"/>
<path d="M362.218 204.004C362.218 204.004 360.77 217.049 358.91 220.956C364.394 222.264 369.963 223.186 375.575 223.715C375.575 223.715 380.769 210.145 380.169 205.165C376.662 204.366 362.218 204.004 362.218 204.004Z" fill="white"/>
<path opacity="0.4" d="M454.133 206.138C454.133 206.138 461.212 224.039 460.812 230.356C470.399 229.282 487.09 223.777 487.09 223.777C487.09 223.777 483.519 204.066 480.086 197.562C474.719 198.486 454.133 206.138 454.133 206.138Z" fill="#407BFF"/>
<path d="M451.824 204.79C451.824 204.79 457.766 227.785 457.367 234.101C466.954 233.015 485.454 225.6 485.454 225.6C485.454 225.6 482.958 202.106 479.213 195.64C473.895 196.601 451.824 204.79 451.824 204.79Z" fill="white"/>
<path opacity="0.4" d="M475.205 201.132C475.177 201.683 474.938 202.202 474.539 202.583C474.14 202.964 473.61 203.177 473.058 203.18C472.792 203.184 472.529 203.133 472.283 203.03C472.038 202.927 471.816 202.775 471.632 202.583C471.448 202.391 471.306 202.163 471.214 201.913C471.122 201.664 471.083 201.398 471.098 201.132C471.127 200.58 471.365 200.06 471.764 199.677C472.163 199.294 472.693 199.078 473.246 199.073C473.512 199.071 473.776 199.123 474.022 199.227C474.267 199.331 474.488 199.485 474.672 199.678C474.856 199.871 474.998 200.099 475.09 200.35C475.181 200.6 475.221 200.866 475.205 201.132Z" fill="#407BFF"/>
<path d="M337.975 68.0594C337.913 68.9939 337.503 69.8711 336.826 70.5181C336.149 71.1651 335.254 71.535 334.318 71.5548C333.864 71.5606 333.414 71.4731 332.995 71.2975C332.577 71.122 332.199 70.8622 331.885 70.5343C331.571 70.2065 331.328 69.8176 331.171 69.3918C331.014 68.966 330.947 68.5125 330.972 68.0594C331.034 67.125 331.445 66.2478 332.122 65.6007C332.799 64.9537 333.694 64.5838 334.63 64.5641C335.083 64.56 335.532 64.6488 335.95 64.825C336.368 65.0012 336.745 65.261 337.058 65.5885C337.372 65.9159 337.615 66.3041 337.773 66.7291C337.93 67.154 337.999 67.6068 337.975 68.0594Z" fill="#407BFF"/>
<path d="M361.182 134.334C361.15 135.003 360.863 135.634 360.38 136.099C359.898 136.563 359.255 136.825 358.585 136.83C358.262 136.835 357.942 136.772 357.644 136.646C357.346 136.52 357.077 136.335 356.854 136.1C356.632 135.866 356.46 135.588 356.349 135.284C356.239 134.98 356.193 134.656 356.214 134.334C356.246 133.665 356.532 133.033 357.015 132.569C357.498 132.105 358.14 131.843 358.81 131.837C359.133 131.833 359.454 131.896 359.752 132.021C360.05 132.147 360.319 132.333 360.541 132.567C360.764 132.802 360.936 133.08 361.046 133.384C361.156 133.688 361.203 134.011 361.182 134.334Z" fill="#407BFF"/>
<path d="M466.879 84.7123C466.841 85.3793 466.553 86.0075 466.071 86.4705C465.59 86.9336 464.951 87.1974 464.283 87.209C463.959 87.2111 463.639 87.1471 463.341 87.021C463.043 86.8948 462.775 86.7091 462.551 86.4753C462.328 86.2414 462.155 85.9644 462.043 85.6613C461.93 85.3581 461.881 85.0351 461.898 84.7123C461.933 84.0442 462.221 83.4144 462.703 82.9507C463.185 82.487 463.826 82.2242 464.495 82.2156C464.818 82.2134 465.138 82.2774 465.436 82.4036C465.734 82.5298 466.002 82.7155 466.226 82.9493C466.449 83.1831 466.622 83.4601 466.735 83.7633C466.847 84.0665 466.896 84.3894 466.879 84.7123Z" fill="#407BFF"/>
<path d="M193.056 97.0459C194.404 103.924 195.74 116.52 190.934 121.114C194.835 127.419 200.641 132.32 207.512 135.108C216.712 129.353 212.305 121.114 212.305 121.114C204.64 119.279 204.815 113.624 206.176 108.244L193.056 97.0459Z" fill="#B55B52"/>
<path d="M183.93 99.3927C178.275 98.8185 161.46 122.574 194.017 133.173C188.724 128.267 186.09 123.511 187.476 117.893C188.304 113.542 188.53 109.098 188.15 104.686C188.15 104.686 190.085 100.017 183.93 99.3927Z" fill="#263238"/>
<path d="M187.376 128.292C186.215 126.967 185.302 125.445 184.679 123.798C184.293 122.703 184.196 121.527 184.396 120.383C184.596 119.239 185.087 118.166 185.822 117.267C186.556 116.368 187.51 115.673 188.591 115.249C189.673 114.825 190.845 114.687 191.995 114.847C195.501 115.329 199.055 115.354 202.568 114.922C210.533 113.936 214.702 117.943 219.009 126.532C219.009 126.532 216.999 130.277 210.969 131.737C204.94 133.198 187.376 128.292 187.376 128.292Z" fill="#407BFF"/>
<path d="M222.479 90.9789C222.267 91.8902 222.566 92.7391 223.166 92.8764C223.765 93.0137 224.414 92.402 224.639 91.4907C224.863 90.5794 224.551 89.7306 223.952 89.5932C223.353 89.4559 222.704 90.0676 222.479 90.9789Z" fill="#263238"/>
<path d="M223.678 89.5808L226.012 89.4684C226.012 89.4684 224.489 90.904 223.678 89.5808Z" fill="#263238"/>
<path d="M225.151 85.8608C225.257 85.8659 225.362 85.8399 225.454 85.7861C225.546 85.7323 225.62 85.653 225.668 85.5578C225.716 85.4625 225.735 85.3555 225.722 85.2498C225.71 85.144 225.668 85.044 225.6 84.962C225.054 84.2827 224.353 83.7445 223.556 83.3926C222.758 83.0407 221.888 82.8853 221.019 82.9397C220.946 82.9474 220.876 82.9694 220.812 83.0045C220.749 83.0395 220.693 83.0868 220.647 83.1437C220.602 83.2007 220.568 83.266 220.549 83.336C220.529 83.4059 220.523 83.4791 220.532 83.5513C220.55 83.696 220.625 83.8278 220.739 83.9186C220.853 84.0095 220.998 84.0524 221.143 84.0382C221.833 84.0022 222.522 84.1319 223.152 84.4164C223.782 84.7009 224.334 85.1319 224.764 85.6735C224.863 85.7837 225.002 85.8508 225.151 85.8608Z" fill="#263238"/>
<path d="M221.343 93.7628C221.652 96.0345 222.274 98.2526 223.191 100.354C222.648 100.572 222.064 100.669 221.48 100.639C220.896 100.609 220.325 100.452 219.808 100.179L221.343 93.7628Z" fill="#A02724"/>
<path d="M192.706 79.8937C190.709 91.2286 189.623 95.9723 193.88 103.063C200.284 113.724 214.627 113.699 219.982 103.2C224.789 93.7502 227.26 76.8103 217.398 69.7447C215.233 68.1747 212.702 67.1844 210.046 66.8678C207.39 66.5512 204.697 66.9188 202.223 67.9356C199.749 68.9525 197.576 70.5848 195.91 72.6777C194.245 74.7706 193.142 77.2546 192.706 79.8937Z" fill="#B55B52"/>
<path d="M212.842 88.8817C216.275 87.4836 224.439 84.3877 226.436 79.5067C228.434 74.6257 220.195 61.5931 213.154 64.1646C194.816 60.2573 182.033 69.0332 182.108 82.8897C182.183 97.3705 187.938 105.609 197.375 107.757C206.812 109.904 215.014 100.017 212.842 88.8817Z" fill="#263238"/>
<path d="M186.489 92.8639C182.744 92.3521 180.747 96.147 182.108 99.2929C183.469 102.439 188.012 107.42 189.76 107.42C191.508 107.42 194.966 106.171 195.84 104.211C196.713 102.251 189.011 93.2259 186.489 92.8639Z" fill="#407BFF"/>
<path d="M209.721 87.8331C209.466 88.9034 209.425 90.0137 209.6 91.1C209.776 92.1862 210.165 93.2269 210.745 94.1622C212.305 96.6588 215.064 95.7476 216.287 93.2259C217.386 90.9664 217.885 86.9842 215.526 85.3115C215.003 84.9566 214.4 84.7396 213.771 84.6807C213.142 84.6217 212.509 84.7228 211.929 84.9744C211.35 85.2261 210.844 85.6201 210.458 86.1199C210.072 86.6197 209.818 87.2091 209.721 87.8331Z" fill="#B55B52"/>
<path d="M183.419 132.673C183.419 133.135 183.419 133.922 183.419 134.534V136.556C183.419 137.912 183.481 139.273 183.606 140.638C183.796 143.332 184.146 146.012 184.654 148.665C185.576 153.739 187.484 158.582 190.272 162.921C191.296 164.244 190.896 164.032 191.77 164.631C192.702 165.213 193.699 165.682 194.741 166.029C197.309 166.9 199.938 167.58 202.606 168.064C208.161 169.113 214.04 169.837 219.808 170.423L219.97 176.303C213.854 177.103 207.678 177.341 201.519 177.015C198.272 176.865 195.046 176.413 191.882 175.666C190.055 175.227 188.284 174.582 186.602 173.744C185.551 173.194 184.574 172.515 183.693 171.722C183.444 171.497 183.194 171.235 182.944 170.973L182.482 170.436L181.633 169.425C179.486 166.73 177.699 163.767 176.316 160.611C174.968 157.571 173.923 154.406 173.195 151.161C172.452 147.995 171.947 144.778 171.684 141.537C171.572 139.926 171.497 138.316 171.472 136.693C171.472 135.882 171.472 135.07 171.472 134.259C171.472 133.447 171.534 132.686 171.622 131.65L183.419 132.673Z" fill="#B55B52"/>
<path d="M219.446 169.986L231.817 168.039L225.725 178.125C225.725 178.125 218.235 177.813 216.187 173.482L219.446 169.986Z" fill="#B55B52"/>
<path d="M237.934 171.434L237.971 178.937L225.725 178.126L231.817 168.039L237.934 171.434Z" fill="#B55B52"/>
<path d="M264.011 203.379H225.313C225.057 203.411 224.796 203.374 224.559 203.273C224.321 203.172 224.114 203.011 223.959 202.805C223.803 202.598 223.705 202.355 223.673 202.099C223.641 201.843 223.677 201.583 223.777 201.345L241.641 149.301C241.879 148.717 242.282 148.214 242.8 147.855C243.319 147.496 243.931 147.296 244.562 147.279H283.261C283.516 147.245 283.777 147.279 284.015 147.379C284.253 147.478 284.461 147.638 284.617 147.844C284.773 148.049 284.871 148.292 284.903 148.548C284.935 148.804 284.898 149.064 284.796 149.301L266.932 201.345C266.693 201.929 266.29 202.431 265.772 202.792C265.254 203.153 264.642 203.357 264.011 203.379Z" fill="#407BFF"/>
<path d="M263.325 201.732H225.949C225.806 201.751 225.66 201.732 225.527 201.676C225.394 201.62 225.278 201.529 225.191 201.413C225.105 201.297 225.05 201.16 225.035 201.017C225.019 200.873 225.041 200.728 225.101 200.596L242.752 149.127C242.888 148.801 243.114 148.521 243.404 148.319C243.693 148.118 244.035 148.004 244.387 147.991H281.838C281.981 147.973 282.126 147.993 282.259 148.049C282.392 148.105 282.508 148.195 282.596 148.31C282.683 148.426 282.738 148.561 282.756 148.705C282.775 148.848 282.755 148.993 282.699 149.127L265.035 200.596C264.894 200.933 264.657 201.221 264.352 201.423C264.048 201.625 263.69 201.733 263.325 201.732Z" fill="white"/>
<path d="M171.859 123.586L184.342 128.641L190.996 136.019L191.857 146.193C191.857 146.193 177.314 157.228 169.587 156.18C166.916 137.48 168.588 127.193 171.859 123.586Z" fill="#263238"/>
<path d="M233.265 131.837C233.452 140.238 232.266 157.728 226.361 194.042H179.287C180.073 174.88 181.009 162.833 171.797 123.561C178.126 122.259 184.543 121.433 190.996 121.089C198.111 120.576 205.253 120.576 212.368 121.089C216.974 121.513 221.892 122.25 225.637 122.899C227.749 123.27 229.666 124.365 231.058 125.997C232.45 127.628 233.23 129.693 233.265 131.837Z" fill="#263238"/>
<path opacity="0.2" d="M224.064 135.108L232.441 148.752C232.004 153.608 231.367 159.425 230.456 166.379L223.59 162.321C220.781 141.674 224.064 135.108 224.064 135.108Z" fill="black"/>
<path d="M234.039 135.332C235.778 140.8 237.443 146.293 239.032 151.811L241.429 160.087L243.738 168.388L244.874 172.545L245.436 174.63C245.565 175.163 245.724 175.688 245.91 176.203C246.147 176.886 246.461 177.54 246.847 178.15C246.934 178.275 246.922 178.3 246.847 178.338C246.772 178.375 246.759 178.45 246.909 178.475C247.645 178.48 248.368 178.276 248.994 177.888C250.025 177.33 251.003 176.678 251.915 175.941C252.914 175.142 253.9 174.268 254.873 173.344C255.847 172.421 256.808 171.384 257.682 170.461L262.676 173.607C261.993 175.02 261.226 176.392 260.379 177.714C259.547 179.07 258.616 180.363 257.595 181.583C256.504 182.914 255.274 184.124 253.925 185.191C252.231 186.561 250.224 187.488 248.083 187.888C246.68 188.123 245.243 188.042 243.876 187.65C242.526 187.251 241.273 186.58 240.193 185.678C238.546 184.255 237.216 182.503 236.286 180.535C235.885 179.728 235.543 178.894 235.262 178.038L234.563 175.978L233.165 171.871L230.431 163.632L227.797 155.356C226.012 149.838 224.327 144.296 222.704 138.74L234.039 135.332Z" fill="#B55B52"/>
<path d="M221.256 132.324C223.241 127.58 229.457 124.522 229.457 124.522C236.148 128.879 238.408 130.938 242.852 153.096C236.373 158.764 225.637 158.764 225.637 158.764L219.845 143.784C219.845 143.784 219.271 137.105 221.256 132.324Z" fill="#263238"/>
<path d="M256.147 172.658L260.591 161.822L266.034 172.271C266.034 172.271 261.914 178.513 257.12 178.013L256.147 172.658Z" fill="#B55B52"/>
<path d="M268.793 164.007C268.682 164.01 268.573 163.985 268.475 163.935C268.377 163.884 268.293 163.811 268.231 163.72L255.261 145.968C255.153 145.816 255.109 145.627 255.139 145.442C255.17 145.257 255.272 145.092 255.423 144.982C255.574 144.875 255.761 144.832 255.943 144.862C256.126 144.892 256.289 144.994 256.396 145.144L269.354 162.896C269.435 162.999 269.485 163.122 269.498 163.252C269.511 163.383 269.487 163.514 269.428 163.63C269.369 163.747 269.277 163.845 269.165 163.911C269.052 163.978 268.923 164.011 268.793 164.007Z" fill="#263238"/>
<path d="M270.29 159.713L273.149 166.004L266.034 172.271L260.591 161.822L270.29 159.713Z" fill="#B55B52"/>
<path d="M226.361 194.042C226.361 194.042 238.121 283.036 242.14 318.164C248.07 370.045 261.315 439.253 261.315 439.253L253.413 440.664C253.413 440.664 225.8 372.941 221.63 321.66C208.535 283.885 189.748 194.042 189.748 194.042H226.361Z" fill="#B55B52"/>
<path d="M260.678 430.752L250.454 435.745C250.248 435.839 250.083 436.005 249.991 436.212C249.899 436.419 249.886 436.653 249.955 436.869L253.251 446.631C253.352 446.877 253.504 447.099 253.696 447.283C253.888 447.467 254.117 447.609 254.367 447.7C254.618 447.79 254.884 447.828 255.15 447.809C255.416 447.79 255.674 447.717 255.91 447.592C260.104 445.457 260.117 445.17 265.447 442.599C268.73 440.988 274.06 438.554 278.592 436.357C283.123 434.16 281.176 429.778 279.091 430.315C269.754 432.737 266.82 431.426 262.863 430.552C262.133 430.365 261.362 430.436 260.678 430.752Z" fill="#263238"/>
<path d="M214.065 194.042C214.065 194.042 206.425 278.33 199.997 313.096C193.243 349.61 188.2 436.619 188.125 439.278H180.098C180.098 439.278 169.113 341.471 179.361 308.739C181.059 268.792 179.287 194.042 179.287 194.042H214.065Z" fill="#B55B52"/>
<path d="M189.074 437.643H179.936C179.709 437.638 179.488 437.716 179.315 437.864C179.142 438.011 179.03 438.217 178.999 438.442L177.651 448.89C177.627 449.155 177.658 449.423 177.743 449.675C177.828 449.927 177.965 450.159 178.145 450.355C178.325 450.552 178.544 450.708 178.788 450.815C179.031 450.922 179.295 450.976 179.561 450.975C184.155 450.9 182.32 450.626 188.125 450.626C191.695 450.626 196.863 451 201.857 451C206.85 451 206.987 446.119 204.927 445.682C195.69 443.697 194.204 440.963 191.058 438.367C190.503 437.899 189.8 437.643 189.074 437.643Z" fill="#263238"/>
<path opacity="0.2" d="M179.461 306.317L200.77 308.664C201.632 303.571 202.518 297.691 203.38 291.35L179.898 288.941C179.761 295.12 179.661 301 179.461 306.317Z" fill="black"/>
<path opacity="0.2" d="M239.357 295.045L212.842 292.324C214.59 298.827 216.337 304.982 218.023 310.549L241.541 313.121C240.93 307.84 240.181 301.699 239.357 295.045Z" fill="black"/>
<path d="M226.361 194.042L243.339 310.312L177.327 301.948C183.768 252.177 164.207 212.268 179.287 194.042H226.361Z" fill="#407BFF"/>
<path opacity="0.2" d="M185.478 217.898C192.695 224.169 201.065 228.974 210.121 232.041C195.29 231.879 188.412 226.611 185.478 217.898Z" fill="black"/>
</svg>
